<?xml version="1.0" encoding="UTF-8"?>
<svg version="1.1" xmlns="http://www.w3.org/2000/svg" width="1024" height="1024">
<path d="M0 0 C337.92 0 675.84 0 1024 0 C1024 337.92 1024 675.84 1024 1024 C686.08 1024 348.16 1024 0 1024 C0 686.08 0 348.16 0 0 Z " fill="#F0F0EF" transform="translate(0,0)"/>
<path d="M0 0 C1.47377711 -0.00543889 2.94754877 -0.01257132 4.42131042 -0.02124023 C8.37605492 -0.03926876 12.33037581 -0.03249177 16.28512645 -0.01972389 C20.45495157 -0.00948671 24.62474414 -0.01901911 28.79457092 -0.02526855 C35.79377651 -0.03251495 42.79281245 -0.02303769 49.79199219 -0.00390625 C57.84291697 0.01784819 65.8934362 0.01080941 73.94435114 -0.01121187 C80.89944575 -0.02946246 87.85441946 -0.03187712 94.80953032 -0.0214572 C98.94472702 -0.01527384 103.0797342 -0.01424196 107.21491814 -0.02760315 C111.10665455 -0.03930272 114.99787693 -0.03088404 118.88955879 -0.00802612 C120.30350524 -0.00281285 121.71749624 -0.00412305 123.13142395 -0.01307678 C141.59739608 -0.11907895 157.6859347 4.21561392 171.31665039 17.17773438 C182.07733337 28.21480476 188.88825594 41.74797354 188.77368164 57.33007812 C188.74854492 58.66039062 188.74854492 58.66039062 188.72290039 60.01757812 C188.71387695 60.93539062 188.70485352 61.85320312 188.69555664 62.79882812 C188.67222471 65.03869368 188.63949274 67.27798995 188.59790039 69.51757812 C187.5318457 70.08476562 186.46579102 70.65195312 185.36743164 71.23632812 C182.09824264 73.10678832 179.74857757 75.13482166 177.28540039 78.01757812 C176.30120117 79.14679688 176.30120117 79.14679688 175.29711914 80.29882812 C173.35301117 82.69272684 173.35301117 82.69272684 171.59790039 86.51757812 C160.04790039 86.51757812 148.49790039 86.51757812 136.59790039 86.51757812 C136.59790039 72.98757813 136.59790039 59.45757812 136.59790039 45.51757812 C123.72790039 45.51757812 110.85790039 45.51757812 97.59790039 45.51757812 C97.59790039 63.99757813 97.59790039 82.47757813 97.59790039 101.51757812 C121.68790039 101.51757812 145.77790039 101.51757812 170.59790039 101.51757812 C172.24790039 104.81757813 173.89790039 108.11757813 175.59790039 111.51757812 C177.51516103 113.90479446 177.51516103 113.90479446 179.59790039 115.45507812 C180.27852539 116.01582031 180.95915039 116.5765625 181.66040039 117.15429688 C183.67642377 118.67741882 183.67642377 118.67741882 186.59790039 119.76757812 C188.59790039 121.51757812 188.59790039 121.51757812 188.89868164 124.13867188 C188.90942587 126.95007912 188.81202066 129.71498174 188.59790039 132.51757812 C187.54731445 132.5665625 186.49672852 132.61554688 185.41430664 132.66601562 C183.99631688 132.74114091 182.57834923 132.81668434 181.16040039 132.89257812 C180.12882812 132.93898438 180.12882812 132.93898438 179.07641602 132.98632812 C175.34212388 133.19475373 171.85919087 133.63286413 168.22290039 134.52148438 C159.6348163 136.5463549 147.82007775 137.90505579 139.63305664 134.16210938 C137.6142357 132.40678138 136.1243421 130.70826392 134.59790039 128.51757812 C130.48663283 123.49140877 127.15732747 119.87027911 120.59790039 118.51757812 C119.18703062 118.42159741 117.77253444 118.37192132 116.35845947 118.35935974 C115.51995956 118.34957092 114.68145966 118.3397821 113.81755066 118.32969666 C112.90620865 118.32394119 111.99486664 118.31818573 111.0559082 118.31225586 C109.60662682 118.29740646 109.60662682 118.29740646 108.12806702 118.28225708 C104.9357447 118.2506797 101.74340751 118.22589944 98.55102539 118.20117188 C96.33713393 118.18059911 94.12324637 118.15960255 91.90936279 118.13819885 C86.08314167 118.08301156 80.2568853 118.03358749 74.43060303 117.98535156 C67.43964279 117.92627873 60.44874696 117.86006911 53.45783997 117.79505157 C42.83789946 117.69708411 32.21791758 117.60819919 21.59790039 117.51757812 C21.59790039 93.75757813 21.59790039 69.99757813 21.59790039 45.51757812 C9.05790039 45.51757812 -3.48209961 45.51757812 -16.40209961 45.51757812 C-16.40209961 104.58757812 -16.40209961 163.65757812 -16.40209961 224.51757812 C-3.86209961 224.51757812 8.67790039 224.51757812 21.59790039 224.51757812 C21.59790039 199.76757812 21.59790039 175.01757812 21.59790039 149.51757812 C68.45790039 149.51757812 115.31790039 149.51757812 163.59790039 149.51757812 C164.58790039 154.79757812 165.57790039 160.07757813 166.59790039 165.51757812 C171.01451432 174.04267012 176.5421193 178.40465338 185.59790039 181.51757812 C184.88471548 186.49644657 183.46323243 188.92114456 179.59790039 192.10400391 C172.59330226 195.40451035 164.16531079 194.20579337 156.59790039 193.95507812 C154.7555116 193.91992793 152.91305844 193.88799543 151.07055664 193.859375 C146.57677897 193.78859092 142.09200214 193.65163514 137.59790039 193.51757812 C137.59790039 184.93757812 137.59790039 176.35757813 137.59790039 167.51757812 C124.72790039 167.51757812 111.85790039 167.51757812 98.59790039 167.51757812 C98.59790039 186.32757812 98.59790039 205.13757813 98.59790039 224.51757812 C111.46790039 224.51757812 124.33790039 224.51757812 137.59790039 224.51757812 C137.59790039 219.23757813 137.59790039 213.95757813 137.59790039 208.51757812 C149.14790039 208.51757812 160.69790039 208.51757812 172.59790039 208.51757812 C173.25790039 212.47757813 173.91790039 216.43757812 174.59790039 220.51757812 C177.53155813 224.66296406 180.34007766 227.73361711 184.59790039 230.51757812 C181.14303175 242.53838397 172.01970481 251.16895179 161.59790039 257.51757812 C148.26929792 264.52074214 135.5803746 265.82050993 120.7199707 265.80810547 C119.2663438 265.8141055 117.81272004 265.82091437 116.35910034 265.82846069 C112.44562092 265.84597742 108.53222918 265.85080994 104.61871433 265.85209227 C102.16416345 265.85352254 99.70963426 265.85780853 97.25508881 265.8630867 C88.66491808 265.88153918 80.07480903 265.88976328 71.48461914 265.88818359 C63.52069175 265.88698331 55.55703584 265.90807573 47.59317708 265.93967092 C40.71884382 265.96595623 33.84459859 265.9765458 26.97021556 265.97527277 C22.88077506 265.97476675 18.79157629 265.98024806 14.70218658 266.00162888 C10.85074773 266.02121978 6.99977612 266.02099618 3.14831924 266.00659561 C1.74887267 266.00453198 0.34939518 266.00905899 -1.04999924 266.02131653 C-20.49036956 266.18033489 -36.73286343 261.04742905 -50.73803711 247.29882812 C-60.46159402 237.14754877 -65.5003329 223.6133381 -65.54927063 209.58789062 C-65.55294732 208.90267051 -65.55662401 208.21745039 -65.56041211 207.51146603 C-65.57140014 205.22182903 -65.57528451 202.93223749 -65.57910156 200.64257812 C-65.58537007 198.99792844 -65.59201722 197.35328017 -65.59901428 195.70863342 C-65.62001706 190.31162495 -65.63041552 184.91461632 -65.64038086 179.51757812 C-65.64443031 177.65526312 -65.64854729 175.79294826 -65.65273094 173.93063354 C-65.67177704 165.17674629 -65.68600734 156.42286742 -65.69434291 147.66896343 C-65.704103 137.58713395 -65.73039283 127.50552474 -65.7708438 117.42377281 C-65.80108351 109.61716216 -65.81581935 101.81061435 -65.81912392 94.0039463 C-65.82146611 89.34831582 -65.83031722 84.6929208 -65.8555851 80.03735352 C-65.87900769 75.65090683 -65.88304259 71.26484824 -65.87282372 66.87835503 C-65.87233162 65.27769104 -65.87855466 63.67700702 -65.89237976 62.07640266 C-66.03257079 44.86814209 -61.79442624 30.12539658 -49.83959961 17.26757812 C-35.70012938 3.98245655 -18.95359517 -0.11983446 0 0 Z " fill="#014787" transform="translate(168.402099609375,348.482421875)"/>
<path d="M0 0 C8.79179059 6.63611117 15.75077532 16.80478934 17.6875 27.8125 C18.545871 43.39523511 16.9720349 56.43366433 6.94140625 69 C-0.75655152 77.45014906 -11.45786327 82.24125369 -22.75 83.0625 C-35.93574199 83.48784652 -42.74310254 80.7395481 -53.3125 72.8125 C-53.6425 85.6825 -53.9725 98.5525 -54.3125 111.8125 C-61.9025 111.8125 -69.4925 111.8125 -77.3125 111.8125 C-77.3125 73.2025 -77.3125 34.5925 -77.3125 -5.1875 C-69.7225 -5.1875 -62.1325 -5.1875 -54.3125 -5.1875 C-53.9825 -2.5475 -53.6525 0.0925 -53.3125 2.8125 C-52.384375 1.905 -51.45625 0.9975 -50.5 0.0625 C-36.38977519 -11.75201363 -14.68057374 -9.46423794 0 0 Z " fill="#01407C" transform="translate(741.3125,396.1875)"/>
<path d="M0 0 C1.65810021 1.15018414 3.26239773 2.37739958 4.8515625 3.62109375 C5.1815625 1.31109375 5.5115625 -0.99890625 5.8515625 -3.37890625 C13.4415625 -3.37890625 21.0315625 -3.37890625 28.8515625 -3.37890625 C28.8515625 25.00109375 28.8515625 53.38109375 28.8515625 82.62109375 C21.2615625 82.62109375 13.6715625 82.62109375 5.8515625 82.62109375 C5.3565625 78.16609375 5.3565625 78.16609375 4.8515625 73.62109375 C3.8615625 74.52859375 2.8715625 75.43609375 1.8515625 76.37109375 C-7.46379378 84.34760328 -17.12472435 85.52160391 -29.1484375 84.62109375 C-41.29120898 82.07924565 -50.93621118 75.69306994 -58.1484375 65.62109375 C-65.35216936 52.59002545 -66.58614201 36.73384994 -62.5234375 22.37109375 C-60.56431366 16.99553289 -57.99367019 12.82943558 -54.1484375 8.62109375 C-53.64699219 8.0178125 -53.14554688 7.41453125 -52.62890625 6.79296875 C-39.87751669 -7.47865947 -15.8990937 -10.20432741 0 0 Z " fill="#013F7B" transform="translate(833.1484375,394.37890625)"/>
<path d="M0 0 C8.25 0 16.5 0 25 0 C25 14.85 25 29.7 25 45 C41.5 45 58 45 75 45 C75 30.15 75 15.3 75 0 C83.25 0 91.5 0 100 0 C100 37.62 100 75.24 100 114 C91.75 114 83.5 114 75 114 C75 98.16 75 82.32 75 66 C58.5 66 42 66 25 66 C25 81.51 25 97.02 25 113 C16.75 113 8.5 113 0 113 C0 75.71 0 38.42 0 0 Z " fill="#02427E" transform="translate(416,363)"/>
<path d="M0 0 C9.91426868 7.83989862 14.12332765 17.05274052 17.5390625 29.0078125 C17.5390625 34.2878125 17.5390625 39.5678125 17.5390625 45.0078125 C-3.9109375 45.0078125 -25.3609375 45.0078125 -47.4609375 45.0078125 C-42.51825902 56.25010321 -42.51825902 56.25010321 -33.4609375 62.0078125 C-26.88841859 64.12932177 -18.48448437 64.023877 -11.9609375 61.8203125 C-8.35099608 60.18292567 -8.35099608 60.18292567 -5.7734375 57.2578125 C-5.0103125 56.5153125 -4.2471875 55.7728125 -3.4609375 55.0078125 C0.59973827 55.3673515 4.13160535 56.97604515 7.8515625 58.5703125 C8.92019531 59.02535156 9.98882813 59.48039063 11.08984375 59.94921875 C12.30220703 60.47322266 12.30220703 60.47322266 13.5390625 61.0078125 C10.91743729 68.76345375 4.61977005 74.22466189 -2.5234375 77.9453125 C-13.83168083 83.33847471 -29.59627121 84.46125144 -41.5234375 80.4453125 C-43.19733365 79.6923216 -44.84478268 78.87785112 -46.4609375 78.0078125 C-47.39164063 77.52183594 -48.32234375 77.03585937 -49.28125 76.53515625 C-59.18980329 70.82491369 -65.82349056 62.7857119 -69.61328125 51.96875 C-72.94541882 38.78613277 -71.68490857 24.10239425 -64.953125 12.3828125 C-58.64514911 2.52476646 -49.76400474 -3.47388845 -38.8359375 -7.2421875 C-25.25026894 -10.1990683 -11.40765118 -7.85714303 0 0 Z " fill="#033F7B" transform="translate(568.4609375,530.9921875)"/>
<path d="M0 0 C7.92 0 15.84 0 24 0 C24.33 12.54 24.66 25.08 25 38 C26.65 36.35 28.3 34.7 30 33 C32.31640625 31.453125 32.31640625 31.453125 34.5625 30.25 C35.30628906 29.84265625 36.05007813 29.4353125 36.81640625 29.015625 C44.61561892 25.38808422 55.8814412 25.68836931 64.125 27.80078125 C71.62543205 31.21113395 77.87449981 37.50054759 80.9375 45.1875 C82.44366954 50.59199069 83.12535376 55.58231594 83.11352539 61.18896484 C83.11341209 62.99015274 83.11341209 62.99015274 83.11329651 64.82772827 C83.10813522 66.10918732 83.10297394 67.39064636 83.09765625 68.7109375 C83.09578895 70.04757636 83.09436652 71.38421592 83.09336853 72.72085571 C83.08956795 76.22249269 83.07975891 79.72408756 83.06866455 83.22570801 C83.05839732 86.80541413 83.05385957 90.38512712 83.04882812 93.96484375 C83.03813422 100.97658144 83.02055758 107.98828436 83 115 C75.08 115 67.16 115 59 115 C58.98541748 113.30472168 58.97083496 111.60944336 58.95581055 109.86279297 C58.9040582 104.24676871 58.83874535 98.63101044 58.76428509 93.01524162 C58.71965423 89.61207343 58.6803827 86.20902293 58.65356445 82.80566406 C58.62245771 78.88841433 58.56767108 74.97166424 58.51171875 71.0546875 C58.50532883 69.83884979 58.4989389 68.62301208 58.49235535 67.37033081 C58.40183316 59.25699037 58.40183316 59.25699037 55 52 C50.41907097 47.95927486 44.59342397 47.30860733 38.6875 47.5546875 C34.41138452 48.26322989 30.97135678 49.81139779 28 53 C24.41620463 59.42266015 24.52792805 65.47453799 24.48828125 72.71484375 C24.47033005 73.92572159 24.45237885 75.13659943 24.43388367 76.38417053 C24.37988872 80.2352454 24.34591851 84.08619705 24.3125 87.9375 C24.27931751 90.55535564 24.24482699 93.17319505 24.20898438 95.79101562 C24.12171671 102.19402712 24.06155187 108.59648346 24 115 C16.08 115 8.16 115 0 115 C0 77.05 0 39.1 0 0 Z " fill="#01407D" transform="translate(694,497)"/>
<path d="M0 0 C31.02 0 62.04 0 94 0 C94 6.93 94 13.86 94 21 C82.45 21 70.9 21 59 21 C59 52.02 59 83.04 59 115 C51.08 115 43.16 115 35 115 C35 83.98 35 52.96 35 21 C23.45 21 11.9 21 0 21 C0 14.07 0 7.14 0 0 Z " fill="#02407D" transform="translate(413,497)"/>
<path d="M0 0 C4.45935117 3.72018732 8.77920675 7.75558899 10.64453125 13.3515625 C8.23893572 14.91340438 5.82269261 16.45054612 3.39453125 17.9765625 C2.71261719 18.42257812 2.03070312 18.86859375 1.328125 19.328125 C-0.54212385 20.49022137 -2.30954734 21.53649008 -4.35546875 22.3515625 C-7.51713941 21.57695319 -8.3698146 20.33602116 -10.60546875 17.9140625 C-14.91630002 13.89715154 -19.53210084 12.22157003 -25.41796875 12.0390625 C-30.3071604 12.42709358 -34.78659189 12.78268564 -38.35546875 16.3515625 C-38.85219088 20.38471594 -38.85219088 20.38471594 -37.19140625 23.91796875 C-31.07203853 28.69628354 -21.68423685 29.55289369 -14.16796875 30.8515625 C-4.13605278 32.62623865 4.31759203 34.85970243 10.64453125 43.3515625 C14.76347878 50.2744884 14.95257971 57.97984349 13.05859375 65.7578125 C10.17408504 72.42658493 4.26002977 77.63531354 -2.2109375 80.70703125 C-16.49568872 86.046945 -33.28288189 86.70186632 -47.35546875 80.3515625 C-54.62472586 76.48909156 -59.77260228 71.83862875 -63.35546875 64.3515625 C-60.92604922 62.65126765 -58.48818463 60.96635934 -56.04296875 59.2890625 C-55.35267578 58.80373047 -54.66238281 58.31839844 -53.95117188 57.81835938 C-53.28408203 57.36396484 -52.61699219 56.90957031 -51.9296875 56.44140625 C-51.31697998 56.01722412 -50.70427246 55.59304199 -50.07299805 55.15600586 C-48.35546875 54.3515625 -48.35546875 54.3515625 -45.35546875 55.3515625 C-44.1015625 56.83984375 -44.1015625 56.83984375 -42.79296875 58.6640625 C-38.45833813 63.85280752 -33.15896144 65.83843484 -26.546875 66.73046875 C-20.65881883 66.98363067 -14.8816606 66.48156249 -10.35546875 62.3515625 C-8.95243973 58.86967657 -8.95243973 58.86967657 -9.35546875 55.3515625 C-11.71296183 51.96417134 -14.67460509 51.56874309 -18.5703125 50.73828125 C-19.81490234 50.45919922 -21.05949219 50.18011719 -22.34179688 49.89257812 C-24.93924596 49.32791528 -27.5387449 48.77396336 -30.13867188 48.22070312 C-41.05874038 45.76102633 -51.86473493 42.90850069 -58.3671875 33.18359375 C-61.68601972 27.03129212 -61.37098336 18.59888376 -59.77734375 11.93359375 C-56.47429921 4.41166051 -49.58580751 -1.1135572 -42.10546875 -4.1484375 C-29.11702998 -7.87845068 -11.35436926 -7.9461755 0 0 Z " fill="#023E7A" transform="translate(637.35546875,394.6484375)"/>
<path d="M0 0 C6.09068663 4.71420945 12.21001053 10.19034412 16 17 C16 17.99 16 18.98 16 20 C12.8980736 21.0070436 9.79311902 22.00440805 6.6875 23 C5.80642578 23.28617188 4.92535156 23.57234375 4.01757812 23.8671875 C3.17001953 24.13789062 2.32246094 24.40859375 1.44921875 24.6875 C0.66893311 24.93886719 -0.11135254 25.19023438 -0.9152832 25.44921875 C-3 26 -3 26 -6 26 C-6.598125 25.0925 -7.19625 24.185 -7.8125 23.25 C-10.75844819 18.87316269 -14.02058035 16.65980655 -19 15 C-26.2615188 14.30464252 -32.41843045 14.07944784 -38.421875 18.58203125 C-43.42603991 23.07834774 -46.54866989 28.10116034 -47.32421875 34.80078125 C-47.63457067 43.22309031 -45.72316323 48.95917715 -41.0625 55.875 C-36.43976067 60.63782234 -31.73418666 62.12609834 -25.25 62.25 C-19.23379674 62.14398761 -14.4623338 61.37491367 -10.01953125 57.08984375 C-8.27462323 55.10748433 -6.6309495 53.07615463 -5 51 C-4.01 50.01 -4.01 50.01 -3 49 C3.6 51.64 10.2 54.28 17 57 C14.7208326 66.1166696 6.67612622 73.3869479 -1.07421875 78.3203125 C-12.20657883 84.22549368 -26.14099781 84.72029461 -38.359375 82.34765625 C-41.07613365 81.43290948 -43.47696529 80.35824712 -46 79 C-46.93070313 78.51402344 -47.86140625 78.02804687 -48.8203125 77.52734375 C-59.80244448 71.19840393 -66.28977412 62.05425317 -70 50 C-72.41654854 36.35819372 -71.66570634 24.52132987 -64.49609375 12.47265625 C-57.58123197 2.72520049 -47.14726526 -3.73582543 -35.6328125 -6.5859375 C-22.9595264 -8.57906558 -10.86255501 -6.85355691 0 0 Z " fill="#023E7A" transform="translate(666,530)"/>
<path d="M0 0 C7.59 0 15.18 0 23 0 C23 38.28 23 76.56 23 116 C15.41 116 7.82 116 0 116 C0 77.72 0 39.44 0 0 Z " fill="#00427E" transform="translate(879,361)"/>
<path d="M0 0 C7.59 0 15.18 0 23 0 C23 28.38 23 56.76 23 86 C15.41 86 7.82 86 0 86 C0 57.62 0 29.24 0 0 Z " fill="#00417D" transform="translate(537,391)"/>
<path d="M0 0 C4.94533904 3.91938292 9.32917369 9.04024671 10.67578125 15.328125 C11.47907958 23.54953627 11.55171776 31.35840399 6.67578125 38.328125 C2.13513636 43.4307309 -3.2121736 46.80392661 -10.08203125 47.6796875 C-17.51927722 48.0410882 -23.27906619 46.78131567 -29.32421875 42.328125 C-35.26056124 36.44104677 -37.35148215 30.17389601 -37.63671875 21.890625 C-37.43188349 13.56065761 -34.92811168 8.07697386 -29.1875 2.02734375 C-21.76857906 -4.73833887 -8.50638032 -5.17304499 0 0 Z " fill="#EFF0EF" transform="translate(724.32421875,411.671875)"/>
<path d="M0 0 C5.49059532 3.771318 9.0547667 8.96098888 10.93359375 15.328125 C11.85921478 24.52005609 10.98637503 32.82918869 5.12109375 40.203125 C-0.04823059 45.73071934 -5.99253881 47.25983467 -13.31640625 47.640625 C-19.87653005 47.55315668 -24.99136194 45.0874017 -29.94140625 40.890625 C-35.44870496 34.24947067 -37.57897518 27.48781526 -37.3828125 18.8828125 C-36.52858011 11.98567687 -32.96439692 6.1147977 -28.06640625 1.328125 C-20.10306003 -4.75814675 -8.68927977 -4.52799166 0 0 Z " fill="#EFF0EF" transform="translate(829.06640625,411.671875)"/>
<path d="M0 0 C8.27071175 7.66553772 8.27071175 7.66553772 8.8359375 12.9140625 C9.03784314 19.04888764 8.91546191 23.72019073 5.1640625 28.75 C0.72518167 33.25384007 -3.81640472 34.60033644 -10.0625 34.8125 C-16.30289898 34.5453006 -19.77899997 33.07119322 -24.1875 28.5625 C-27.8929923 23.31305258 -29.10086268 18.78750589 -28.4375 12.375 C-26.45924561 6.48519716 -23.47902535 2.91479439 -18.4375 -0.625 C-12.44789198 -2.62153601 -5.71602945 -2.70212301 0 0 Z " fill="#073975" transform="translate(784.4375,652.625)"/>
<path d="M0 0 C4.02868351 2.40394695 6.94962668 4.98270552 8.625 9.4375 C9.43728942 15.13790274 9.71156082 21.14838909 7.125 26.4375 C3.12851324 31.23328411 -0.23332521 33.91977082 -6.50390625 34.953125 C-13.20045469 35.2945481 -17.62195212 34.6043767 -22.7890625 30.23828125 C-27.73309879 24.62448635 -27.9054132 20.06043377 -27.71484375 12.7578125 C-27.18740223 7.60464826 -25.51673782 5.3171899 -21.71484375 1.98046875 C-15.17542005 -2.89388608 -7.43066708 -3.22462911 0 0 Z " fill="#083473" transform="translate(584.375,652.5625)"/>
<path d="M0 0 C19.67857143 0 19.67857143 0 24.9375 4.75 C26.5348059 8.13253014 25.89143865 10.43424538 25 14 C23.4375 16.4375 23.4375 16.4375 22 18 C22.639375 18.28875 23.27875 18.5775 23.9375 18.875 C26 20 26 20 27 22 C27.68514596 28.96565061 27.68514596 28.96565061 25.18359375 32.7421875 C20.46719576 36.08706853 16.30757153 35.54442903 10.6875 35.3125 C7.160625 35.209375 3.63375 35.10625 0 35 C0 23.45 0 11.9 0 0 Z " fill="#0C427C" transform="translate(372,651)"/>
<path d="M0 0 C0.86863678 0.00561951 1.73727356 0.01123901 2.63223267 0.01702881 C4.00310532 0.01418129 4.00310532 0.01418129 5.40167236 0.01127625 C8.43303919 0.00756114 11.46416825 0.01828315 14.49551392 0.02947998 C16.59536714 0.03067148 18.69522091 0.03112501 20.79507446 0.03086853 C25.2001376 0.03243467 29.60511962 0.04073427 34.01016235 0.05413818 C39.66651089 0.07112819 45.32277018 0.07495259 50.97914124 0.074193 C55.31644549 0.07446449 59.6537301 0.07994227 63.99102783 0.08719444 C66.07710623 0.09038443 68.16318687 0.09234928 70.24926758 0.09308815 C73.16081562 0.09524822 76.07226764 0.10398528 78.98379517 0.11468506 C79.85243195 0.11423187 80.72106873 0.11377869 81.61602783 0.11331177 C87.57906113 0.14547234 87.57906113 0.14547234 89.80801392 1.25994873 C89.80801392 8.51994873 89.80801392 15.77994873 89.80801392 23.25994873 C85.04455964 25.16533044 82.73110626 25.49759207 77.75723267 25.45526123 C77.09842606 25.45243134 76.43961945 25.44960144 75.760849 25.44668579 C73.6722133 25.43555797 71.58401836 25.41046821 69.49551392 25.38494873 C68.0729941 25.37490932 66.65046751 25.36578515 65.22793579 25.35760498 C61.75448711 25.3356432 58.28129359 25.30116519 54.80801392 25.25994873 C54.81023453 26.41031113 54.81245514 27.56067352 54.81474304 28.74589539 C54.83497314 39.56194932 54.84998542 50.37799943 54.85982609 61.19406796 C54.86505525 66.75534285 54.8721535 72.31660252 54.88345337 77.87786865 C54.89428107 83.24002292 54.9002905 88.60216251 54.90289116 93.96432686 C54.90474562 96.01495152 54.90836663 98.06557533 54.91374397 100.11619377 C54.92095285 102.97785076 54.92200492 105.8394463 54.92153931 108.70111084 C54.92513458 109.55778351 54.92872986 110.41445618 54.93243408 111.29708862 C54.92206608 117.14589657 54.92206608 117.14589657 53.80801392 118.25994873 C45.22801392 118.25994873 36.64801392 118.25994873 27.80801392 118.25994873 C27.80801392 87.56994873 27.80801392 56.87994873 27.80801392 25.25994873 C16.91801392 25.25994873 6.02801392 25.25994873 -5.19198608 25.25994873 C-7.19198608 24.25994873 -7.19198608 24.25994873 -8.19198608 21.25994873 C-8.41725833 18.07622718 -8.3771277 14.88834006 -8.37948608 11.69744873 C-8.39173218 10.82153076 -8.40397827 9.94561279 -8.41659546 9.04315186 C-8.41852905 8.20590576 -8.42046265 7.36865967 -8.42245483 6.50604248 C-8.42861816 5.35640015 -8.42861816 5.35640015 -8.43490601 4.18353271 C-7.81840843 -0.69826068 -4.00684025 0.021253 0 0 Z M-6.19198608 2.25994873 C-6.19198608 9.18994873 -6.19198608 16.11994873 -6.19198608 23.25994873 C5.35801392 23.25994873 16.90801392 23.25994873 28.80801392 23.25994873 C28.80801392 54.27994873 28.80801392 85.29994873 28.80801392 117.25994873 C36.72801392 117.25994873 44.64801392 117.25994873 52.80801392 117.25994873 C52.80801392 86.23994873 52.80801392 55.21994873 52.80801392 23.25994873 C64.35801392 23.25994873 75.90801392 23.25994873 87.80801392 23.25994873 C87.80801392 16.32994873 87.80801392 9.39994873 87.80801392 2.25994873 C56.78801392 2.25994873 25.76801392 2.25994873 -6.19198608 2.25994873 Z " fill="#FAFBFA" transform="translate(419.1919860839844,494.74005126953125)"/>
<path d="M0 0 C12.54 0 25.08 0 38 0 C38 23.76 38 47.52 38 72 C69.35 72 100.7 72 133 72 C132.67 72.66 132.34 73.32 132 74 C100.65 73.67 69.3 73.34 37 73 C35.55042544 70.10085089 35.88067076 67.585717 35.88647461 64.34716797 C35.88632858 63.66412598 35.88618256 62.98108398 35.8860321 62.27734375 C35.88672977 60.0155929 35.89451535 57.753924 35.90234375 55.4921875 C35.90420845 53.92562912 35.90563211 52.35907016 35.90663147 50.79251099 C35.91045257 46.66610102 35.9202794 42.53972616 35.93133545 38.41333008 C35.94335517 33.46406276 35.94795375 28.51478371 35.95378876 23.56550598 C35.96349136 16.04364623 35.98265075 8.52186353 36 1 C24.45 1 12.9 1 1 1 C1 59.08 1 117.16 1 177 C12.55 177 24.1 177 36 177 C36 152.91 36 128.82 36 104 C36.99 104.495 36.99 104.495 38 105 C38 129.42 38 153.84 38 179 C25.46 179 12.92 179 0 179 C0 119.93 0 60.86 0 0 Z " fill="#FBFBFA" transform="translate(152,394)"/>
<path d="M0 0 C4.28635138 2.26924485 7.60201503 4.7574112 10 9 C10.67302515 13.58262071 10.58809792 17.57618398 8.8125 21.875 C3.91222269 27.62015271 3.91222269 27.62015271 -0.30078125 28.45703125 C-5.10865467 28.77074681 -8.22640593 28.36045201 -12 25.25 C-15.3346905 22.07563116 -16.85520143 19.27905406 -17.375 14.6875 C-16.7740881 8.778533 -14.64552497 5.42612164 -10.1875 1.5625 C-6.36484149 -0.31135221 -4.20985151 -0.60140736 0 0 Z " fill="#034485" transform="translate(359,490)"/>
<path d="M0 0 C1.2065625 0.0309375 1.2065625 0.0309375 2.4375 0.0625 C2.83839844 0.92488281 3.23929687 1.78726563 3.65234375 2.67578125 C4.22649113 3.9088874 4.80071669 5.14195715 5.375 6.375 C5.68058838 7.03201904 5.98617676 7.68903809 6.30102539 8.3659668 C8.14772674 12.32752064 10.01542122 16.27805077 11.90625 20.21875 C12.31625244 21.07557373 12.72625488 21.93239746 13.14868164 22.81518555 C13.95978655 24.50828429 14.77402889 26.19988392 15.59155273 27.88989258 C15.96223877 28.66486084 16.3329248 29.4398291 16.71484375 30.23828125 C17.04734131 30.92833252 17.37983887 31.61838379 17.72241211 32.3293457 C18.4375 34.0625 18.4375 34.0625 18.4375 36.0625 C16.1275 36.0625 13.8175 36.0625 11.4375 36.0625 C8.4375 30.3125 8.4375 30.3125 8.4375 28.0625 C2.8275 28.0625 -2.7825 28.0625 -8.5625 28.0625 C-9.2225 30.7025 -9.8825 33.3425 -10.5625 36.0625 C-12.8725 36.0625 -15.1825 36.0625 -17.5625 36.0625 C-15.43017246 28.02482871 -12.3348159 20.57760695 -8.9375 13 C-8.43476563 11.86111328 -7.93203125 10.72222656 -7.4140625 9.54882812 C-3.2074206 0.07822977 -3.2074206 0.07822977 0 0 Z " fill="#063F7A" transform="translate(338.5625,650.9375)"/>
<path d="M0 0 C3.90588361 2.00874014 6.34194085 4.96363881 8 9 C8.77703075 14.55021965 8.33963698 19.36760032 5 24 C1.66053122 26.76994697 -1.26647654 27.89704934 -5.5625 28.5 C-9.7562704 27.88999703 -11.79863628 26.76481412 -15 24 C-18.2937473 19.27896221 -18.91296574 14.59818552 -18 9 C-13.82996568 0.95779095 -8.81419239 -1.50147126 0 0 Z " fill="#024485" transform="translate(370,543)"/>
<path d="M0 0 C1.2065625 0.0309375 1.2065625 0.0309375 2.4375 0.0625 C4.25849888 4.06157888 6.07302747 8.06351302 7.88183594 12.06811523 C8.49696376 13.42762517 9.11379654 14.7863651 9.73242188 16.14428711 C10.62568587 18.10586604 11.51260795 20.07021076 12.3984375 22.03515625 C12.93259277 23.21343994 13.46674805 24.39172363 14.01708984 25.60571289 C15.44426403 29.0789613 16.47843988 32.43870955 17.4375 36.0625 C15.1275 36.0625 12.8175 36.0625 10.4375 36.0625 C9.4475 33.7525 8.4575 31.4425 7.4375 29.0625 C2.1575 28.7325 -3.1225 28.4025 -8.5625 28.0625 C-9.5525 31.5275 -9.5525 31.5275 -10.5625 35.0625 C-11.5625 36.0625 -11.5625 36.0625 -14.625 36.125 C-15.594375 36.104375 -16.56375 36.08375 -17.5625 36.0625 C-16.89872833 31.76427302 -15.39637936 28.00082572 -13.65625 24.046875 C-13.37148804 23.39044006 -13.08672607 22.73400513 -12.79333496 22.05767822 C-12.19381524 20.67838862 -11.59192372 19.30012777 -10.98779297 17.92285156 C-10.06042068 15.80775761 -9.14097207 13.68935199 -8.22265625 11.5703125 C-7.63848091 10.2289662 -7.05386115 8.88781335 -6.46875 7.546875 C-6.05465881 6.59382477 -6.05465881 6.59382477 -5.63220215 5.621521 C-3.19466018 0.07791854 -3.19466018 0.07791854 0 0 Z " fill="#083774" transform="translate(252.5625,650.9375)"/>
<path d="M0 0 C3.48805691 1.98102187 6.19713391 4.39426782 8 8 C8.40678241 12.85792065 8.62085653 17.43152035 6.8125 22 C3.23818968 25.94406656 0.34314744 27.2066307 -4.9375 27.5 C-8.50353167 27.39370994 -10.69159858 26.98568074 -13.5 24.75 C-17.75229873 20.0724714 -18.44335632 16.69004521 -18.32421875 10.4765625 C-17.85052678 6.85824074 -16.37324418 4.71227906 -14 2 C-9.52852634 -0.98098244 -5.23732986 -0.86073109 0 0 Z " fill="#024284" transform="translate(369,431)"/>
<path d="M0 0 C1.98 0 3.96 0 6 0 C6 11.55 6 23.1 6 35 C0 35 0 35 -1.70336914 33.62646484 C-2.14285889 32.99434082 -2.58234863 32.3622168 -3.03515625 31.7109375 C-3.53466797 31.01613281 -4.03417969 30.32132813 -4.54882812 29.60546875 C-5.04833984 28.86941406 -5.54785156 28.13335938 -6.0625 27.375 C-7.07278638 25.94429996 -8.08448721 24.5145976 -9.09765625 23.0859375 C-9.53601807 22.4470459 -9.97437988 21.8081543 -10.42602539 21.14990234 C-12.4878132 18.33369272 -14.76558168 15.68130199 -17 13 C-17.33 20.26 -17.66 27.52 -18 35 C-19.98 35 -21.96 35 -24 35 C-24 23.78 -24 12.56 -24 1 C-18 1 -18 1 -16.29663086 2.26586914 C-15.85714111 2.84973389 -15.41765137 3.43359863 -14.96484375 4.03515625 C-14.46533203 4.68033203 -13.96582031 5.32550781 -13.45117188 5.99023438 C-12.7019043 7.01600586 -12.7019043 7.01600586 -11.9375 8.0625 C-11.43412109 8.71927734 -10.93074219 9.37605469 -10.41210938 10.05273438 C-7.176955 14.30070551 -4.10464815 18.6534926 -1 23 C-0.67 15.41 -0.34 7.82 0 0 Z " fill="#063271" transform="translate(833,651)"/>
<path d="M0 0 C5.49460263 4.02072853 7.65847947 7.84653217 9.8203125 14.33203125 C-4.0396875 14.33203125 -17.8996875 14.33203125 -32.1796875 14.33203125 C-30.45921293 7.45013297 -26.73964116 3.41689516 -21.1796875 -0.66796875 C-14.6747974 -4.46248797 -6.36734694 -3.64769066 0 0 Z " fill="#EEF0EF" transform="translate(553.1796875,543.66796875)"/>
<path d="M0 0 C7.92 0 15.84 0 24 0 C24 1.98 24 3.96 24 6 C18.06 6 12.12 6 6 6 C6 8.97 6 11.94 6 15 C10.95 15 15.9 15 21 15 C21 16.98 21 18.96 21 21 C16.05 21 11.1 21 6 21 C6 23.97 6 26.94 6 30 C12.27 30 18.54 30 25 30 C25 31.98 25 33.96 25 36 C16.75 36 8.5 36 0 36 C0 24.12 0 12.24 0 0 Z " fill="#10407B" transform="translate(453,651)"/>
<path d="M0 0 C2.88403869 2.47203316 4.527306 4.42690478 6.1875 7.875 C6.5284981 12.47847439 5.79810381 15.88540073 3.375 19.8125 C-0.69133763 23.64647548 -4.09878419 24.32123891 -9.55859375 24.1953125 C-13.07956116 23.69493238 -15.17802095 22.18820111 -17.8125 19.875 C-20.37494894 15.66589144 -20.49538871 11.68020471 -19.8125 6.875 C-15.6481198 -1.30503254 -8.44815649 -3.3792626 0 0 Z " fill="#023E7B" transform="translate(555.8125,360.125)"/>
<path d="M0 0 C8.91 0 17.82 0 27 0 C27 38.28 27 76.56 27 116 C18.09 116 9.18 116 0 116 C0 100.49 0 84.98 0 69 C-15.51 69 -31.02 69 -47 69 C-46.96039293 83.76454451 -46.96039293 83.76454451 -46.90991211 98.52905273 C-46.90699306 100.37223249 -46.90444448 102.21541288 -46.90234375 104.05859375 C-46.89722778 105.02510864 -46.89211182 105.99162354 -46.88684082 106.98742676 C-46.88671997 107.90092896 -46.88659912 108.81443115 -46.88647461 109.75561523 C-46.884254 110.55281479 -46.88203339 111.35001434 -46.87974548 112.17137146 C-47 114 -47 114 -48 115 C-49.92667507 115.08748207 -51.85651861 115.10697334 -53.78515625 115.09765625 C-55.53989258 115.09282227 -55.53989258 115.09282227 -57.33007812 115.08789062 C-59.17762695 115.07532227 -59.17762695 115.07532227 -61.0625 115.0625 C-62.91584961 115.05573242 -62.91584961 115.05573242 -64.80664062 115.04882812 C-67.87114117 115.03699608 -70.93554721 115.02051173 -74 115 C-74 114.67 -74 114.34 -74 114 C-65.75 114 -57.5 114 -49 114 C-49 98.49 -49 82.98 -49 67 C-32.5 67 -16 67 1 67 C1 82.84 1 98.68 1 115 C9.25 115 17.5 115 26 115 C26 77.38 26 39.76 26 1 C17.75 1 9.5 1 1 1 C1 15.85 1 30.7 1 46 C-20.78 45.505 -20.78 45.505 -43 45 C-43 44.67 -43 44.34 -43 44 C-28.81 44 -14.62 44 0 44 C0 29.48 0 14.96 0 0 Z " fill="#FCFDFC" transform="translate(490,362)"/>
<path d="M0 0 C2.31 0 4.62 0 7 0 C7.0093457 0.73637695 7.01869141 1.47275391 7.02832031 2.23144531 C7.08204155 5.57164218 7.16568622 8.91044119 7.25 12.25 C7.26417969 13.40886719 7.27835938 14.56773437 7.29296875 15.76171875 C7.32519531 16.87675781 7.35742188 17.99179687 7.390625 19.140625 C7.41157227 20.16704102 7.43251953 21.19345703 7.45410156 22.25097656 C8.13701347 25.68996946 9.23414709 26.89686374 12 29 C16.71234476 29.60902229 16.71234476 29.60902229 20.875 27.6875 C23.03081967 24.4537705 23.17046023 21.44952837 23.31640625 17.67578125 C23.35830078 16.64775391 23.40019531 15.61972656 23.44335938 14.56054688 C23.48267578 13.48869141 23.52199219 12.41683594 23.5625 11.3125 C23.60568359 10.22904297 23.64886719 9.14558594 23.69335938 8.02929688 C23.79946838 5.35299209 23.90152361 2.67659474 24 0 C25.98 0 27.96 0 30 0 C30.11656783 4.20809884 30.18737611 8.41577996 30.25 12.625 C30.30027344 14.40970703 30.30027344 14.40970703 30.3515625 16.23046875 C30.47395279 27.1843999 30.47395279 27.1843999 26 32 C21.69743819 35.89279402 18.10683242 36.70004514 12.46875 36.4453125 C8.49374685 35.72830244 5.57985112 34.11361343 3 31 C-0.65683451 24.67282587 -0.35345596 18.7326486 -0.1875 11.5625 C-0.17396484 10.44939453 -0.16042969 9.33628906 -0.14648438 8.18945312 C-0.11132997 5.45912788 -0.06212106 2.72982256 0 0 Z " fill="#053472" transform="translate(646,651)"/>
<path d="M0 0 C3.62531608 1.8741654 5.69121639 4.07364917 7 8 C7.38773716 12.73039335 7.48117872 15.05546399 5.3125 19.3125 C1.97686767 23.18904568 -0.30965077 24.71827513 -5.375 25.5625 C-10.2143014 24.81157392 -12.74360418 22.55075928 -16 19 C-17.86233425 15.27533151 -17.57130829 11.05504687 -17 7 C-13.16631919 -0.16669435 -7.52363165 -1.04846934 0 0 Z " fill="#EEEFEF" transform="translate(580,657)"/>
<path d="M0 0 C3.50252011 2.04313673 5.77361702 4.09787233 7 8 C7.48365156 13.22343681 6.92346277 16.61480585 4 21 C1.3498368 23.46086583 -0.55602797 24.87266561 -4.21484375 25.1953125 C-8.53844687 24.95071598 -10.57097126 24.34858585 -14 21.5625 C-17.20586684 17.45498311 -17.3890062 14.66957123 -17.359375 9.55078125 C-16.78039966 5.44131496 -15.00085071 3.78650423 -12 1 C-8.29778834 -0.85110583 -4.04093083 -0.46454795 0 0 Z " fill="#EEF0EF" transform="translate(780,657)"/>
<path d="M0 0 C2.52750327 1.06396737 3.92722406 2.1575325 6 4 C5.34 5.32 4.68 6.64 4 8 C1.61435923 7.42415568 -0.66682784 6.77772405 -3 6 C-6.58343976 5.83322718 -6.58343976 5.83322718 -10 6 C-11.29633621 7.06645115 -11.29633621 7.06645115 -11.0625 9.5625 C-11.041875 10.366875 -11.02125 11.17125 -11 12 C-10.43152344 12.18175781 -9.86304688 12.36351562 -9.27734375 12.55078125 C4.31769723 16.97654584 4.31769723 16.97654584 7 21 C7.76579737 27.67337705 7.76579737 27.67337705 5.94921875 30.8203125 C4.17251621 32.99009082 2.52491118 34.73754441 0 36 C-7.49056481 36.69336032 -12.84974015 36.47291625 -19 32 C-18.6875 30.0625 -18.6875 30.0625 -18 28 C-15 27 -15 27 -13.13671875 27.92578125 C-12.07904297 28.45751953 -12.07904297 28.45751953 -11 29 C-8.44352617 29.27717025 -8.44352617 29.27717025 -5.8125 29.1875 C-4.93207031 29.18105469 -4.05164063 29.17460938 -3.14453125 29.16796875 C-1.01852688 29.23510464 -1.01852688 29.23510464 0 28 C0.04063832 26.33382885 0.042721 24.66611905 0 23 C-1.55460937 22.54560547 -1.55460937 22.54560547 -3.140625 22.08203125 C-4.5106931 21.65974999 -5.88046987 21.23652273 -7.25 20.8125 C-7.93191406 20.61591797 -8.61382812 20.41933594 -9.31640625 20.21679688 C-13.97388232 18.74720491 -16.42651254 17.16165982 -19 13 C-19.59521377 9.89166141 -19.65512336 8.03949464 -17.94140625 5.3203125 C-12.82795903 -1.02218286 -7.76842654 -0.77886568 0 0 Z " fill="#063171" transform="translate(170,651)"/>
<path d="M0 0 C2.19921875 1.08984375 2.19921875 1.08984375 5.51171875 3.08984375 C4.52171875 4.40984375 3.53171875 5.72984375 2.51171875 7.08984375 C1.48046875 6.75984375 0.44921875 6.42984375 -0.61328125 6.08984375 C-4.63726403 4.93896835 -8.61552169 4.15346397 -12.48828125 6.08984375 C-12.48828125 7.73984375 -12.48828125 9.38984375 -12.48828125 11.08984375 C-11.451875 11.39277344 -10.41546875 11.69570313 -9.34765625 12.0078125 C-7.97758815 12.43009376 -6.60781138 12.85332102 -5.23828125 13.27734375 C-4.55636719 13.47392578 -3.87445312 13.67050781 -3.171875 13.87304688 C1.48394003 15.34211472 3.94313894 16.92563102 6.51171875 21.08984375 C7.18474248 25.04385814 6.6808046 26.76419693 4.82421875 30.33984375 C1.78090027 33.95892519 -0.09634857 34.8254505 -4.75 35.33984375 C-11.11821813 35.6519157 -15.02923589 34.32483359 -20.48828125 31.08984375 C-19.82828125 29.43984375 -19.16828125 27.78984375 -18.48828125 26.08984375 C-17.91980469 26.31800781 -17.35132813 26.54617188 -16.765625 26.78125 C-11.48120973 28.74856988 -7.98786699 29.46474018 -2.48828125 28.08984375 C-1.19194504 27.0233926 -1.19194504 27.0233926 -1.42578125 24.52734375 C-1.44640625 23.72296875 -1.46703125 22.91859375 -1.48828125 22.08984375 C-3.86042787 21.09507259 -6.21928499 20.17073408 -8.68359375 19.4296875 C-17.20931784 16.85508765 -17.20931784 16.85508765 -19.48828125 13.08984375 C-20.15846535 9.92870991 -20.20155991 7.24624222 -19.48828125 4.08984375 C-14.66033026 -2.30392918 -7.32072158 -2.67775216 0 0 Z " fill="#063976" transform="translate(875.48828125,651.91015625)"/>
<path d="M0 0 C0.928125 0.495 1.85625 0.99 2.8125 1.5 C2.5 3.4375 2.5 3.4375 1.8125 5.5 C-1.1875 6.5 -1.1875 6.5 -3.4375 5.5625 C-6.82986106 4.25181504 -9.58034865 4.29189511 -13.1875 4.5 C-14.48383621 5.56645115 -14.48383621 5.56645115 -14.25 8.0625 C-14.229375 8.866875 -14.20875 9.67125 -14.1875 10.5 C-13.383125 10.768125 -12.57875 11.03625 -11.75 11.3125 C-9.9865625 11.9003125 -9.9865625 11.9003125 -8.1875 12.5 C-7.42953125 12.71785156 -6.6715625 12.93570313 -5.890625 13.16015625 C-2.59429975 14.14582213 0.15592958 14.98270209 2.875 17.125 C4.37501582 20.92504006 4.59188215 24.48868455 3.8125 28.5 C1.28281526 31.78175318 -0.26481331 33.19243777 -4.1875 34.5 C-11.40822878 35.20137652 -16.23769195 34.73097461 -22.1875 30.5 C-21.5275 28.85 -20.8675 27.2 -20.1875 25.5 C-14.4375 27.375 -14.4375 27.375 -12.1875 28.5 C-8.13607881 28.75860135 -6.64412331 28.80441554 -3.1875 26.5 C-2.93719023 23.91619823 -2.93719023 23.91619823 -3.1875 21.5 C-4.06792969 21.26925781 -4.94835937 21.03851562 -5.85546875 20.80078125 C-18.30442472 17.30512547 -18.30442472 17.30512547 -21.1875 12.5 C-21.91990175 9.30882095 -21.970695 6.68460909 -21.1875 3.5 C-16.00922193 -3.3577196 -7.56756718 -3.19929669 0 0 Z " fill="#093774" transform="translate(538.1875,652.5)"/>
<path d="M0 0 C8.25 0 16.5 0 25 0 C25 14.85 25 29.7 25 45 C41.17 45 57.34 45 74 45 C74 45.33 74 45.66 74 46 C57.5 46 41 46 24 46 C24 31.48 24 16.96 24 2 C16.74 2 9.48 2 2 2 C2 37.97 2 73.94 2 111 C9.26 111 16.52 111 24 111 C24 96.15 24 81.3 24 66 C24.33 66 24.66 66 25 66 C25 81.51 25 97.02 25 113 C16.75 113 8.5 113 0 113 C0 75.71 0 38.42 0 0 Z " fill="#173875" transform="translate(416,363)"/>
<path d="M0 0 C3.99476223 1.84821422 5.9662815 3.07838407 7.70703125 7.2421875 C6.38703125 8.2321875 5.06703125 9.2221875 3.70703125 10.2421875 C2.90265625 9.5821875 2.09828125 8.9221875 1.26953125 8.2421875 C-2.16409429 5.9720891 -5.10116157 5.60572851 -9.171875 5.77734375 C-12.61575462 6.5320798 -14.21690237 8.51735038 -16.29296875 11.2421875 C-17.88858762 14.43342524 -17.67288295 17.76963841 -17.29296875 21.2421875 C-15.6560969 24.82771631 -14.60324292 26.03533805 -11.29296875 28.2421875 C-5.62604973 29.05932751 -2.11911888 28.27576758 2.70703125 25.2421875 C5.01953125 26.0546875 5.01953125 26.0546875 6.70703125 27.2421875 C6.70703125 28.2321875 6.70703125 29.2221875 6.70703125 30.2421875 C1.97273419 34.59262264 -1.7112427 35.56050028 -7.953125 35.44921875 C-13.4347411 34.96420097 -17.05985806 32.79846323 -20.66796875 28.8046875 C-24.31411863 24.44685595 -24.64706965 20.09135626 -24.57421875 14.5546875 C-23.97064923 9.59200479 -21.43699598 6.30041269 -17.79296875 2.9296875 C-12.00990056 -0.97388353 -6.81056722 -2.25085186 0 0 Z " fill="#063472" transform="translate(215.29296875,651.7578125)"/>
<path d="M0 0 C7.59 0 15.18 0 23 0 C23 38.28 23 76.56 23 116 C15.41 116 7.82 116 0 116 C0 77.72 0 39.44 0 0 Z M1 1 C1 38.29 1 75.58 1 114 C7.6 114 14.2 114 21 114 C21 76.71 21 39.42 21 1 C14.4 1 7.8 1 1 1 Z " fill="#042A6B" transform="translate(879,361)"/>
<path d="M0 0 C12.87 0 25.74 0 39 0 C39 8.91 39 17.82 39 27 C37 25 37 25 36.77294922 22.66162109 C36.78342285 21.70852051 36.79389648 20.75541992 36.8046875 19.7734375 C36.80968262 18.84450684 36.81467773 17.91557617 36.81982422 16.95849609 C36.83803223 15.77594238 36.85624023 14.59338867 36.875 13.375 C36.91625 9.62125 36.9575 5.8675 37 2 C25.45 2 13.9 2 2 2 C2 19.49 2 36.98 2 55 C13.88 55 25.76 55 38 55 C38 49.72 38 44.44 38 39 C50.21 39 62.42 39 75 39 C75 39.33 75 39.66 75 40 C63.12 40 51.24 40 39 40 C39 45.61 39 51.22 39 57 C26.13 57 13.26 57 0 57 C0 38.19 0 19.38 0 0 Z " fill="#F8FAF9" transform="translate(267,516)"/>
<path d="M0 0 C9.57 0 19.14 0 29 0 C29 1.98 29 3.96 29 6 C25.37 6 21.74 6 18 6 C18 15.9 18 25.8 18 36 C16.02 36 14.04 36 12 36 C12 26.1 12 16.2 12 6 C8.04 6 4.08 6 0 6 C0 4.02 0 2.04 0 0 Z " fill="#01427C" transform="translate(690,651)"/>
<path d="M0 0 C7.59 0 15.18 0 23 0 C23 0.66 23 1.32 23 2 C16.07 2 9.14 2 2 2 C2 39.62 2 77.24 2 116 C8.6 116 15.2 116 22 116 C22 103.13 22 90.26 22 77 C22.33 77 22.66 77 23 77 C23 90.2 23 103.4 23 117 C15.41 117 7.82 117 0 117 C0 78.39 0 39.78 0 0 Z " fill="#153772" transform="translate(664,391)"/>
<path d="M0 0 C1.98 0 3.96 0 6 0 C6 9.9 6 19.8 6 30 C11.94 30 17.88 30 24 30 C24 31.98 24 33.96 24 36 C16.08 36 8.16 36 0 36 C0 24.12 0 12.24 0 0 Z " fill="#01467E" transform="translate(609,651)"/>
<path d="M0 0 C2.30664062 -0.37231445 2.30664062 -0.37231445 5.15625 -0.36328125 C6.17847656 -0.36263672 7.20070313 -0.36199219 8.25390625 -0.36132812 C9.32511719 -0.34521484 10.39632812 -0.32910156 11.5 -0.3125 C13.10681641 -0.31733398 13.10681641 -0.31733398 14.74609375 -0.32226562 C22.73312996 -0.26687004 22.73312996 -0.26687004 25 2 C25.625 4.125 25.625 4.125 26 6 C27.98 4.68 29.96 3.36 32 2 C32.66 2.33 33.32 2.66 34 3 C32.5433323 4.14795006 31.08461063 5.29329419 29.625 6.4375 C28.81289063 7.07558594 28.00078125 7.71367187 27.1640625 8.37109375 C25 10 25 10 23 11 C23 8.03 23 5.06 23 2 C15.41 2 7.82 2 0 2 C0 40.94 0 79.88 0 120 C-0.66 119.67 -1.32 119.34 -2 119 C-2.04669689 103.92730738 -2.08197749 88.85462037 -2.10362434 73.78187084 C-2.11394199 66.78351106 -2.12801161 59.78519619 -2.15087891 52.78686523 C-2.17292335 46.03715202 -2.18455834 39.28749519 -2.18975449 32.53774452 C-2.19345901 29.95846127 -2.20069269 27.37918066 -2.21146011 24.79991722 C-2.22591015 21.19622582 -2.22798065 17.59272923 -2.22705078 13.98901367 C-2.23424133 12.91511383 -2.24143188 11.84121399 -2.24884033 10.73477173 C-2.246091 9.75460587 -2.24334167 8.77444 -2.24050903 7.76457214 C-2.24235262 6.91191363 -2.24419621 6.05925512 -2.24609566 5.18075848 C-2 3 -2 3 0 0 Z " fill="#FAFAF8" transform="translate(664,389)"/>
<path d="M0 0 C0 0.66 0 1.32 0 2 C0.66 2 1.32 2 2 2 C2.66 1.34 3.32 0.68 4 0 C4 0.66 4 1.32 4 2 C4.639375 2.28875 5.27875 2.5775 5.9375 2.875 C8 4 8 4 9 6 C9.68712241 12.98574447 9.68712241 12.98574447 7.12109375 16.7734375 C2.60260226 19.99689201 -0.95405414 19.33887737 -6.3125 18.8125 C-7.24384766 18.74224609 -8.17519531 18.67199219 -9.13476562 18.59960938 C-11.4251226 18.42342807 -13.71294883 18.21487644 -16 18 C-16 14.7 -16 11.4 -16 8 C-15.01 8.495 -15.01 8.495 -14 9 C-13.26924352 11.3140622 -12.59861742 13.64828869 -12 16 C-6.06 15.505 -6.06 15.505 0 15 C-3.96 14.67 -7.92 14.34 -12 14 C-12 10.7 -12 7.4 -12 4 C-7.71 4 -3.42 4 1 4 C-1.56893838 2.71553081 -3.76576337 2.67022856 -6.625 2.4375 C-7.62789063 2.35371094 -8.63078125 2.26992188 -9.6640625 2.18359375 C-10.82035156 2.09271484 -10.82035156 2.09271484 -12 2 C-12 1.67 -12 1.34 -12 1 C-10.37512529 0.83211627 -8.75009558 0.66573213 -7.125 0.5 C-6.22007812 0.4071875 -5.31515625 0.314375 -4.3828125 0.21875 C-2 0 -2 0 0 0 Z " fill="#0A477F" transform="translate(390,667)"/>
<path d="M0 0 C1.98 0 3.96 0 6 0 C6 9.9 6 19.8 6 30 C11.61 30 17.22 30 23 30 C23 31.65 23 33.3 23 35 C15.41 35 7.82 35 0 35 C0 23.45 0 11.9 0 0 Z " fill="#00306F" transform="translate(285,651)"/>
<path d="M0 0 C0.33 0 0.66 0 1 0 C1 27.06 1 54.12 1 82 C7.27 82 13.54 82 20 82 C20 54.94 20 27.88 20 0 C20.66 0 21.32 0 22 0 C22 27.72 22 55.44 22 84 C14.41 84 6.82 84 -1 84 C-0.67 56.28 -0.34 28.56 0 0 Z " fill="#03286B" transform="translate(538,393)"/>
<path d="M0 0 C1.98 0 3.96 0 6 0 C6 9.57 6 19.14 6 29 C11.61 29 17.22 29 23 29 C23 30.65 23 32.3 23 34 C15.41 34 7.82 34 0 34 C0 22.78 0 11.56 0 0 Z " fill="#023371" transform="translate(415,652)"/>
<path d="M0 0 C2.31118163 3.46677244 2.24417896 4.76331881 2.22705078 8.84838867 C2.22689972 10.0494072 2.22674866 11.25042572 2.22659302 12.48783875 C2.21627045 13.78478165 2.20594788 15.08172455 2.1953125 16.41796875 C2.19158155 17.75889373 2.18873497 19.09982144 2.18673706 20.44075012 C2.17910699 23.96714833 2.15946403 27.49338134 2.1373291 31.01971436 C2.1168571 34.61923996 2.10773245 38.21879231 2.09765625 41.81835938 C2.07621743 48.87898021 2.04104046 55.93946194 2 63 C-5.92 63 -13.84 63 -22 63 C-22 43.86 -22 24.72 -22 5 C-20 7 -20 7 -19.75949097 9.29055786 C-19.76393219 10.24542084 -19.76837341 11.20028381 -19.77294922 12.18408203 C-19.77310028 13.26505157 -19.77325134 14.34602112 -19.77340698 15.45974731 C-19.78372955 16.63060883 -19.79405212 17.80147034 -19.8046875 19.0078125 C-19.8075174 20.20356903 -19.81034729 21.39932556 -19.81326294 22.63131714 C-19.82448695 26.46264519 -19.84959569 30.29374222 -19.875 34.125 C-19.88502692 36.71744455 -19.89415327 39.30989275 -19.90234375 41.90234375 C-19.92443357 48.26831862 -19.95897867 54.6341201 -20 61 C-13.4 61 -6.8 61 0 61 C0 40.87 0 20.74 0 0 Z " fill="#123D79" transform="translate(775,549)"/>
<path d="M0 0 C0.33 0 0.66 0 1 0 C1 5.28 1 10.56 1 16 C1.99 15.01 2.98 14.02 4 13 C7.1015625 12.3046875 7.1015625 12.3046875 10.625 11.875 C14.63456136 11.70212343 14.63456136 11.70212343 18 10 C18.16666667 7.5 18.16666667 7.5 18 5 C16.12175109 3.12175109 12.96064724 3.60897603 10.4375 3.4375 C8.64119141 3.31181641 8.64119141 3.31181641 6.80859375 3.18359375 C5.88175781 3.12300781 4.95492188 3.06242188 4 3 C4 5.97 4 8.94 4 12 C3.67 12 3.34 12 3 12 C2.97311849 10.35425434 2.95365877 8.70838587 2.9375 7.0625 C2.92589844 6.14597656 2.91429687 5.22945312 2.90234375 4.28515625 C3 2 3 2 4 1 C8.84907247 0.57692656 13.44132705 0.38302529 18 2.1875 C20.30804419 4.27916505 21.66433163 6.18806659 23 9 C23 9.99 23 10.98 23 12 C22.01 12.33 21.02 12.66 20 13 C19.67 13.99 19.34 14.98 19 16 C18.34 15.67 17.68 15.34 17 15 C17 14.34 17 13.68 17 13 C16.01 13.495 16.01 13.495 15 14 C16.32 15.32 17.64 16.64 19 18 C12.07 17.505 12.07 17.505 5 17 C5 20.3 5 23.6 5 27 C9.62 27 14.24 27 19 27 C16.22957891 29.77042109 14.23466195 29.39796106 10.375 29.625 C9.18648438 29.69976563 7.99796875 29.77453125 6.7734375 29.8515625 C5.85820312 29.90054688 4.94296875 29.94953125 4 30 C3.34 27.36 2.68 24.72 2 22 C1.67 24.97 1.34 27.94 1 31 C6.94 31 12.88 31 19 31 C19 31.33 19 31.66 19 32 C12.4 32 5.8 32 -1 32 C-1.02293813 27.76409271 -1.04285661 23.52840035 -1.05493164 19.29248047 C-1.05996474 17.8510668 -1.06679173 16.40965824 -1.07543945 14.96826172 C-1.08754983 12.89809915 -1.09323847 10.82800399 -1.09765625 8.7578125 C-1.10289307 7.5114502 -1.10812988 6.26508789 -1.11352539 4.98095703 C-1 2 -1 2 0 0 Z " fill="#012A6B" transform="translate(373,654)"/>
<path d="M0 0 C0.33 0 0.66 0 1 0 C1 2.97 1 5.94 1 9 C5.95 9 10.9 9 16 9 C16 10.98 16 12.96 16 15 C11.05 15 6.1 15 1 15 C1 17.97 1 20.94 1 24 C6.61 24 12.22 24 18 24 C18 25.32 18 26.64 18 28 C11.07 28 4.14 28 -3 28 C-3.33364206 18.10195229 -2.22723366 9.58505917 0 0 Z " fill="#083B77" transform="translate(458,657)"/>
<path d="M0 0 C2.24845077 2.24845077 2.92379464 3.98898917 4.0625 6.9375 C4.57490234 8.25041016 4.57490234 8.25041016 5.09765625 9.58984375 C5.76791766 11.38010907 6.39549191 13.18647574 7 15 C7.66 15.66 8.32 16.32 9 17 C8.67 17.66 8.34 18.32 8 19 C2.72 19 -2.56 19 -8 19 C-8.66 21.31 -9.32 23.62 -10 26 C-11 27 -11 27 -14.0625 27.0625 C-15.031875 27.041875 -16.00125 27.02125 -17 27 C-16.085337 21.66446582 -14.93463975 17.77725416 -11 14 C-9.13363165 11.08846538 -7.49977489 8.11491708 -6 5 C-5.67 6.32 -5.34 7.64 -5 9 C-3.53430585 7.53430585 -2.85021816 5.79237884 -1.9375 3.9375 C-1.57527344 3.20402344 -1.21304688 2.47054687 -0.83984375 1.71484375 C-0.56269531 1.14894531 -0.28554687 0.58304688 0 0 Z " fill="#0D4B83" transform="translate(252,660)"/>
<path d="M0 0 C2.31 0 4.62 0 7 0 C7.01981934 0.74161377 7.03963867 1.48322754 7.06005859 2.24731445 C7.15522928 5.60273834 7.26494094 8.95753286 7.375 12.3125 C7.4059375 13.47974609 7.436875 14.64699219 7.46875 15.84960938 C7.50742187 16.96787109 7.54609375 18.08613281 7.5859375 19.23828125 C7.6173584 20.26993408 7.6487793 21.30158691 7.68115234 22.36450195 C7.82674629 25.22843236 7.82674629 25.22843236 10 28 C10 28.99 10 29.98 10 31 C10.99 31.33 11.98 31.66 13 32 C13.33 32.66 13.66 33.32 14 34 C10.89931029 33.98674919 8.00211335 33.80746497 5 33 C0.97934991 28.3762524 -0.12938483 24.45373378 -0.09765625 18.45703125 C-0.09443359 17.38388672 -0.09121094 16.31074219 -0.08789062 15.20507812 C-0.07951172 14.08552734 -0.07113281 12.96597656 -0.0625 11.8125 C-0.05798828 10.68134766 -0.05347656 9.55019531 -0.04882812 8.38476562 C-0.03703498 5.58979073 -0.0205765 2.7949218 0 0 Z " fill="#1F487F" transform="translate(646,651)"/>
<path d="M0 0 C1.98 0 3.96 0 6 0 C6 11.88 6 23.76 6 36 C4.02 36 2.04 36 0 36 C0 24.12 0 12.24 0 0 Z " fill="#004079" transform="translate(735,651)"/>
<path d="M0 0 C5.51756476 -0.0493521 11.03500171 -0.08569662 16.55273438 -0.10986328 C18.43068682 -0.11993534 20.30862353 -0.13359362 22.18652344 -0.15087891 C24.8822009 -0.17507453 27.57767146 -0.18647083 30.2734375 -0.1953125 C31.11619232 -0.20563507 31.95894714 -0.21595764 32.82723999 -0.22659302 C34.88621247 -0.22699144 36.94467935 -0.12257588 39 0 C41 2 41 2 41.22705078 4.43017578 C41.21657715 5.4251709 41.20610352 6.42016602 41.1953125 7.4453125 C41.18886719 8.52167969 41.18242187 9.59804688 41.17578125 10.70703125 C41.15902344 11.83496094 41.14226562 12.96289062 41.125 14.125 C41.11597656 15.26066406 41.10695313 16.39632812 41.09765625 17.56640625 C41.07403098 20.37781299 41.04109013 23.18880298 41 26 C46.21491148 25.93118765 51.42901615 25.84325377 56.64331055 25.73754883 C58.41730812 25.70428536 60.1914119 25.67625782 61.96557617 25.65356445 C64.51527176 25.62004398 67.06399292 25.56773135 69.61328125 25.51171875 C70.80405022 25.50213387 70.80405022 25.50213387 72.01887512 25.49235535 C76.3177909 25.4234424 76.3177909 25.4234424 80.02416992 23.46801758 C80.34619385 22.98357178 80.66821777 22.49912598 81 22 C81.66 22.33 82.32 22.66 83 23 C79.31450491 27.70038871 79.31450491 27.70038871 76.03915405 28.44692993 C73.67219317 28.57756712 71.34993657 28.56219597 68.98046875 28.48828125 C68.12189774 28.48120651 67.26332672 28.47413177 66.3787384 28.46684265 C63.64742397 28.43894402 60.91819042 28.37621691 58.1875 28.3125 C56.3314099 28.28741114 54.47528754 28.26459899 52.61914062 28.24414062 C48.07798857 28.19339015 43.54131154 28.09553951 39 28 C39 19.42 39 10.84 39 2 C25.8 2 12.6 2 -1 2 C-0.67 1.34 -0.34 0.68 0 0 Z " fill="#002F79" transform="translate(267,514)"/>
<path d="M0 0 C0.33 0 0.66 0 1 0 C1.33 17.16 1.66 34.32 2 52 C25.76 52.33 49.52 52.66 74 53 C74.495 55.97 74.495 55.97 75 59 C74.01 57.02 74.01 57.02 73 55 C48.91 55 24.82 55 0 55 C0 36.85 0 18.7 0 0 Z " fill="#C9DBE7" transform="translate(266,395)"/>
<path d="M0 0 C2.13710877 2.56453052 3.52255644 5.10124407 4.875 8.125 C6.3501568 11.41909451 6.3501568 11.41909451 9.5625 12.9375 C12 14 12 14 12.984375 16.10546875 C13.73530088 18.39012531 14.4100408 20.66894171 15 23 C15.99 23 16.98 23 18 23 C18.33 24.32 18.66 25.64 19 27 C16.69 27 14.38 27 12 27 C11.01 24.03 10.02 21.06 9 18 C6.24993392 17.9729797 3.50013454 17.95315117 0.75 17.9375 C-0.02730469 17.92912109 -0.80460937 17.92074219 -1.60546875 17.91210938 C-2.35957031 17.90888672 -3.11367188 17.90566406 -3.890625 17.90234375 C-4.58188477 17.89710693 -5.27314453 17.89187012 -5.98535156 17.88647461 C-8.09973898 18.00562029 -9.96641515 18.42381763 -12 19 C-11.34 17.35 -10.68 15.7 -10 14 C-9.67 14.66 -9.34 15.32 -9 16 C-6.96758273 15.36020151 -6.96758273 15.36020151 -5 14 C-4.59955696 12.34817245 -4.28520405 10.67557379 -4 9 C-2.76786323 5.95288998 -1.3940229 2.97607681 0 0 Z " fill="#02457F" transform="translate(338,660)"/>
<path d="M0 0 C1 2 1 2 0.47094727 3.78759766 C0.02319946 4.84019775 0.02319946 4.84019775 -0.43359375 5.9140625 C-0.75263672 6.67460938 -1.07167969 7.43515625 -1.40039062 8.21875 C-1.74263672 9.0128125 -2.08488281 9.806875 -2.4375 10.625 C-2.77587891 11.42679688 -3.11425781 12.22859375 -3.46289062 13.0546875 C-4.30166778 15.03939964 -5.14995245 17.02008875 -6 19 C-4.4166747 17.7511573 -4.4166747 17.7511573 -3 16 C-3 14.68 -3 13.36 -3 12 C-2.01 11.67 -1.02 11.34 0 11 C-0.48578543 14.12290635 -0.9986012 16.99580359 -2 20 C1.63 20 5.26 20 9 20 C9 20.33 9 20.66 9 21 C6.5211787 21.19389096 4.04219069 21.38040123 1.5625 21.5625 C0.85544922 21.61857422 0.14839844 21.67464844 -0.58007812 21.73242188 C-2.38427837 21.86190993 -4.19231952 21.93521608 -6 22 C-6.33 21.67 -6.66 21.34 -7 21 C-7.33 21.99 -7.66 22.98 -8 24 C-7.01 23.67 -6.02 23.34 -5 23 C-3.66474283 22.92026524 -2.32587917 22.89228662 -0.98828125 22.90234375 C0.14770508 22.90717773 0.14770508 22.90717773 1.30664062 22.91210938 C2.09232422 22.92048828 2.87800781 22.92886719 3.6875 22.9375 C4.48478516 22.94201172 5.28207031 22.94652344 6.10351562 22.95117188 C8.06904257 22.9629415 10.03453085 22.98087652 12 23 C12.99 24.98 13.98 26.96 15 29 C14.34 29.33 13.68 29.66 13 30 C12.505 27.525 12.505 27.525 12 25 C6.39 25 0.78 25 -5 25 C-5.66 27.64 -6.32 30.28 -7 33 C-9.31 33 -11.62 33 -14 33 C-11.98303216 25.4544716 -9.167083 18.51026045 -5.875 11.4375 C-5.41996094 10.44169922 -4.96492188 9.44589844 -4.49609375 8.41992188 C-1.15265487 1.15265487 -1.15265487 1.15265487 0 0 Z " fill="#063675" transform="translate(335,654)"/>
<path d="M0 0 C5.64760303 1.12952061 5.64760303 1.12952061 8.3125 4.9375 C8.82425781 5.64777344 9.33601562 6.35804688 9.86328125 7.08984375 C11 9 11 9 11 11 C10.195625 10.979375 9.39125 10.95875 8.5625 10.9375 C6.06645115 10.70366379 6.06645115 10.70366379 5 12 C4.84344973 13.48638992 4.74933057 14.97949127 4.68359375 16.47265625 C4.64169922 17.37177734 4.59980469 18.27089844 4.55664062 19.19726562 C4.49766602 20.61555664 4.49766602 20.61555664 4.4375 22.0625 C4.37272461 23.4865918 4.37272461 23.4865918 4.30664062 24.93945312 C4.20020724 27.29281353 4.09818992 29.64628354 4 32 C2.68 32 1.36 32 0 32 C0 21.44 0 10.88 0 0 Z " fill="#02407B" transform="translate(810,653)"/>
<path d="M0 0 C4.31248609 -0.02886537 8.62494762 -0.04675255 12.9375 -0.0625 C14.16919922 -0.07087891 15.40089844 -0.07925781 16.66992188 -0.08789062 C17.83974609 -0.09111328 19.00957031 -0.09433594 20.21484375 -0.09765625 C21.84087524 -0.10551147 21.84087524 -0.10551147 23.49975586 -0.11352539 C26 0 26 0 27 1 C27.09268999 2.35094982 27.11747326 3.70667091 27.11352539 5.06079102 C27.11340454 5.93368774 27.11328369 6.80658447 27.11315918 7.70593262 C27.10548523 9.09092957 27.10548523 9.09092957 27.09765625 10.50390625 C27.09664917 11.3482019 27.09564209 12.19249756 27.09460449 13.06237793 C27.0893557 16.22909902 27.07539456 19.39580081 27.0625 22.5625 C27.041875 29.636875 27.02125 36.71125 27 44 C50.265 44.495 50.265 44.495 74 45 C74 45.33 74 45.66 74 46 C57.83 46 41.66 46 25 46 C25 31.15 25 16.3 25 1 C16.75 1 8.5 1 0 1 C0 0.67 0 0.34 0 0 Z " fill="#F2F7F8" transform="translate(416,362)"/>
<path d="M0 0 C0.33 0 0.66 0 1 0 C1 12.87 1 25.74 1 39 C6.218125 38.896875 11.43625 38.79375 16.8125 38.6875 C18.45581299 38.66260498 20.09912598 38.63770996 21.79223633 38.61206055 C23.08411865 38.57894775 24.37600098 38.54583496 25.70703125 38.51171875 C26.38262085 38.50547485 27.05821045 38.49923096 27.75427246 38.49279785 C30.73195816 38.4013558 32.56767953 38.33863575 34.95581055 36.46801758 C35.30039307 35.98357178 35.64497559 35.49912598 36 35 C35.34 36.98 34.68 38.96 34 41 C22.45 41 10.9 41 -1 41 C-1.02290685 35.32164603 -1.04283457 29.64345119 -1.05493164 23.96508789 C-1.05997256 22.03181415 -1.06680519 20.09854424 -1.07543945 18.1652832 C-1.08751565 15.39273128 -1.09323057 12.62022959 -1.09765625 9.84765625 C-1.10281754 8.97786636 -1.10797882 8.10807648 -1.11329651 7.21192932 C-1.11349185 5.14094186 -1.06208168 3.07005676 -1 1 C-0.67 0.67 -0.34 0.34 0 0 Z " fill="#01367C" transform="translate(306,394)"/>
<path d="M0 0 C3.86146256 1.65491253 6.33824583 5.23899165 8.1875 8.9375 C8.33601844 10.87109586 8.40880833 12.81092097 8.4375 14.75 C8.47617187 16.30654297 8.47617187 16.30654297 8.515625 17.89453125 C8.14532291 21.32864233 7.26936391 23.20379035 5.1875 25.9375 C4.5275 25.9375 3.8675 25.9375 3.1875 25.9375 C3.05794922 24.4525 3.05794922 24.4525 2.92578125 22.9375 C2.13244322 15.12183446 0.98191531 9.37211002 -3.8125 2.9375 C-3.8125 2.2775 -3.8125 1.6175 -3.8125 0.9375 C-1.8125 -0.0625 -1.8125 -0.0625 0 0 Z " fill="#023673" transform="translate(784.8125,654.0625)"/>
<path d="M0 0 C10.23 0 20.46 0 31 0 C31.33 2.64 31.66 5.28 32 8 C31.67 8.33 31.34 8.66 31 9 C27.7 9 24.4 9 21 9 C21 18.24 21 27.48 21 37 C20.34 37 19.68 37 19 37 C19 27.1 19 17.2 19 7 C22.63 7 26.26 7 30 7 C30 5.02 30 3.04 30 1 C20.43 1 10.86 1 1 1 C1 2.98 1 4.96 1 7 C4.3 7 7.6 7 11 7 C11 7.66 11 8.32 11 9 C9.54176788 9.0270043 8.08339325 9.04639787 6.625 9.0625 C5.81289063 9.07410156 5.00078125 9.08570313 4.1640625 9.09765625 C2 9 2 9 0 8 C0 5.36 0 2.72 0 0 Z " fill="#F9FBF9" transform="translate(689,650)"/>
<path d="M0 0 C4.269375 -0.020625 8.53875 -0.04125 12.9375 -0.0625 C14.95991821 -0.07615601 14.95991821 -0.07615601 17.02319336 -0.09008789 C18.6030603 -0.09383423 18.6030603 -0.09383423 20.21484375 -0.09765625 C21.84087524 -0.10551147 21.84087524 -0.10551147 23.49975586 -0.11352539 C26 0 26 0 27 1 C27.125 4.5 27.125 4.5 27 8 C26 9 26 9 22.18359375 9.09765625 C20.60153318 9.09098089 19.01948841 9.07901875 17.4375 9.0625 C16.63119141 9.05798828 15.82488281 9.05347656 14.99414062 9.04882812 C12.99606244 9.03700518 10.99802217 9.01906914 9 9 C9 10.98 9 12.96 9 15 C8.67 15 8.34 15 8 15 C8 12.36 8 9.72 8 7 C13.61 7 19.22 7 25 7 C25 5.02 25 3.04 25 1 C17.08 1 9.16 1 1 1 C1 12.88 1 24.76 1 37 C9.25 37 17.5 37 26 37 C26 37.33 26 37.66 26 38 C17.42 38 8.84 38 0 38 C0 25.46 0 12.92 0 0 Z " fill="#FBFCFA" transform="translate(452,650)"/>
<path d="M0 0 C1.93681161 -0.08107583 3.8745934 -0.13922475 5.8125 -0.1875 C6.89144531 -0.22230469 7.97039062 -0.25710938 9.08203125 -0.29296875 C12 0 12 0 13.8671875 1.3515625 C15.4599956 3.66937291 15.35227814 5.25223052 15 8 C13 10 13 10 9.9609375 10.1953125 C8.77757812 10.17210937 7.59421875 10.14890625 6.375 10.125 C5.18648438 10.10695313 3.99796875 10.08890625 2.7734375 10.0703125 C1.85820312 10.04710937 0.94296875 10.02390625 0 10 C0 6.7 0 3.4 0 0 Z " fill="#EAEDED" transform="translate(378,671)"/>
<path d="M0 0 C4.22483111 1.16904258 5.74320588 2.85451799 8.13134766 6.44482422 C11.00025927 10.52581837 13.6949881 13.49654453 18.70947266 14.59179688 C28.25399873 15.43500182 37.70925315 14.69449819 46.99902344 12.42333984 C49.87184184 11.81554737 52.63527669 11.80770751 55.5625 11.875 C57.11130859 11.90207031 57.11130859 11.90207031 58.69140625 11.9296875 C59.83416016 11.96449219 59.83416016 11.96449219 61 12 C61 9.03 61 6.06 61 3 C61.66 3 62.32 3 63 3 C63 6.63 63 10.26 63 14 C61.94941406 14.04898437 60.89882813 14.09796875 59.81640625 14.1484375 C58.39841649 14.22356279 56.98044884 14.29910622 55.5625 14.375 C54.53092773 14.42140625 54.53092773 14.42140625 53.47851562 14.46875 C49.74422349 14.67717561 46.26129048 15.115286 42.625 16.00390625 C34.03691591 18.02877677 22.22217736 19.38747766 14.03515625 15.64453125 C12.01756881 13.89027576 10.53037515 12.18562199 9 10 C8.08717308 8.93419934 7.17079996 7.87141995 6.25 6.8125 C5.5075 5.884375 4.765 4.95625 4 4 C2.68456137 2.64900897 1.35824882 1.30794331 0 0 Z " fill="#133F7F" transform="translate(294,467)"/>
<path d="M0 0 C1.98 0 3.96 0 6 0 C6.33 10.23 6.66 20.46 7 31 C6.01 30.67 5.02 30.34 4 30 C4 20.76 4 11.52 4 2 C3.34 2 2.68 2 2 2 C2 12.56 2 23.12 2 34 C1.34 34 0.68 34 0 34 C0 22.78 0 11.56 0 0 Z " fill="#022C6F" transform="translate(609,651)"/>
<path d="M0 0 C0.763125 0.309375 1.52625 0.61875 2.3125 0.9375 C7.09162013 2.31453461 12.00869835 3.28991862 17 3 C18.83863894 1.62226745 18.83863894 1.62226745 20 0 C20.66 0.33 21.32 0.66 22 1 C21.690625 1.598125 21.38125 2.19625 21.0625 2.8125 C19.89790296 5.08956772 19.89790296 5.08956772 19 8 C14.82141755 10.08929122 9.54876054 9.44618415 5 9 C2.24563226 7.95049881 0.40621591 6.7499752 -2 5 C-1.125 1.125 -1.125 1.125 0 0 Z " fill="#0A3975" transform="translate(153,678)"/>
<path d="M0 0 C12.66970387 -0.738041 12.66970387 -0.738041 18 4 C17.34 5.32 16.68 6.64 16 8 C13.61435923 7.42415568 11.33317216 6.77772405 9 6 C5.41656024 5.83322718 5.41656024 5.83322718 2 6 C0.64381501 7.12534105 0.64381501 7.12534105 0.9375 10.0625 C0.958125 11.031875 0.97875 12.00125 1 13 C-1.97 12.505 -1.97 12.505 -5 12 C-5.3125 9.3125 -5.3125 9.3125 -5 6 C-2.5 3.1875 -2.5 3.1875 0 1 C0 0.67 0 0.34 0 0 Z " fill="#0B467F" transform="translate(158,651)"/>
<path d="M0 0 C0.33 0.66 0.66 1.32 1 2 C-2.3 2.33 -5.6 2.66 -9 3 C-6.69 3.33 -4.38 3.66 -2 4 C-2 4.33 -2 4.66 -2 5 C-2.67546875 5.15855469 -3.3509375 5.31710937 -4.046875 5.48046875 C-8.06745992 6.53209573 -11.29489173 7.46277465 -14.625 10 C-16.72526321 14.58239246 -16.31267761 19.04058564 -16 24 C-16.66 24 -17.32 24 -18 24 C-19.21357445 17.04952816 -18.71975816 12.49976102 -16 6 C-21.08497678 10.86268271 -21.44231296 16.26372764 -22 23 C-22.33 23 -22.66 23 -23 23 C-23.61670236 12.41327623 -23.61670236 12.41327623 -21.5 7.5625 C-14.81524773 0.71062892 -9.5372291 -0.7889252 0 0 Z " fill="#082F70" transform="translate(580,651)"/>
<path d="M0 0 C1.95803507 -0.05389087 3.91648909 -0.09274217 5.875 -0.125 C7.51082031 -0.15980469 7.51082031 -0.15980469 9.1796875 -0.1953125 C12 0 12 0 14 2 C14.25 4.5 14.25 4.5 14 7 C12 9 12 9 9.1796875 9.1953125 C8.08914063 9.17210937 6.99859375 9.14890625 5.875 9.125 C4.77929688 9.10695313 3.68359375 9.08890625 2.5546875 9.0703125 C1.71164062 9.04710937 0.86859375 9.02390625 0 9 C0 6.03 0 3.06 0 0 Z " fill="#F1F7F7" transform="translate(378,657)"/>
<path d="M0 0 C0.33 0 0.66 0 1 0 C1.75462923 11.59194341 1.75462923 11.59194341 -1.61328125 16.49609375 C-4.95459821 20.11977553 -8.55090198 22.70383001 -13.51953125 23.3046875 C-15.70514209 23.31157131 -17.8271281 23.22634082 -20 23 C-18 21 -18 21 -15 20 C-16.98 19.67 -18.96 19.34 -21 19 C-21 18.67 -21 18.34 -21 18 C-20.40832031 17.91363281 -19.81664062 17.82726562 -19.20703125 17.73828125 C-13.57735973 16.73724667 -10.85743834 15.4418987 -7 11 C-6.34 11 -5.68 11 -5 11 C-4.01 12.485 -4.01 12.485 -3 14 C-0.79600832 9.44508386 -0.41153737 4.97093824 0 0 Z " fill="#072D6C" transform="translate(592,664)"/>
<path d="M0 0 C2.42204038 3.63306058 2.23302891 5.31819023 2.1953125 9.63671875 C2.18886719 10.93544922 2.18242188 12.23417969 2.17578125 13.57226562 C2.1590706 14.94401307 2.14214071 16.31575786 2.125 17.6875 C2.11496674 19.07095718 2.10584149 20.45442127 2.09765625 21.83789062 C2.07404967 25.22543452 2.04112037 28.61263072 2 32 C2.99 32 3.98 32 5 32 C5 21.44 5 10.88 5 0 C5.33 0 5.66 0 6 0 C6 11.22 6 22.44 6 34 C4.02 34 2.04 34 0 34 C0 22.78 0 11.56 0 0 Z " fill="#04286D" transform="translate(735,653)"/>
<path d="M0 0 C2.97 0 5.94 0 9 0 C8.67 12.21 8.34 24.42 8 37 C6.02 37 4.04 37 2 37 C2 36.67 2 36.34 2 36 C3.65 36 5.3 36 7 36 C7 24.45 7 12.9 7 1 C5.02 1 3.04 1 1 1 C1 8.92 1 16.84 1 25 C-0.32 23.68 -1.64 22.36 -3 21 C-2 19 -2 19 -1 17 C-0.95397359 14.30457817 -0.95319184 11.63130951 -1 8.9375 C-1.04584426 6.28540969 -1.0470164 3.65348806 -1 1 C-0.67 0.67 -0.34 0.34 0 0 Z " fill="#C4D6E0" transform="translate(832,650)"/>
<path d="M0 0 C0.33 0 0.66 0 1 0 C1 10.23 1 20.46 1 31 C-0.98 31 -2.96 31 -5 31 C-5 21.1 -5 11.2 -5 1 C-4.67 1 -4.34 1 -4 1 C-4 10.24 -4 19.48 -4 29 C-3.01 29 -2.02 29 -1 29 C-1.00523682 28.15703369 -1.01047363 27.31406738 -1.01586914 26.44555664 C-1.03287826 23.32772064 -1.04543406 20.20990823 -1.05493164 17.09204102 C-1.05997057 15.74079614 -1.06680177 14.38955674 -1.07543945 13.03833008 C-1.08752419 11.09979566 -1.09269828 9.161222 -1.09765625 7.22265625 C-1.10289307 6.05484619 -1.10812988 4.88703613 -1.11352539 3.68383789 C-1 1 -1 1 0 0 Z " fill="#042669" transform="translate(707,656)"/>
<path d="M0 0 C0.99 0 1.98 0 3 0 C3 4.62 3 9.24 3 14 C-19.11 14 -41.22 14 -64 14 C-64 13.67 -64 13.34 -64 13 C-42.88 13 -21.76 13 0 13 C0 8.71 0 4.42 0 0 Z " fill="#064B83" transform="translate(583,560)"/>
<path d="M0 0 C9.57 0 19.14 0 29 0 C29 1.98 29 3.96 29 6 C25.37 6 21.74 6 18 6 C18 5.67 18 5.34 18 5 C20.97 5 23.94 5 27 5 C27 4.01 27 3.02 27 2 C18.75 2 10.5 2 2 2 C2 2.99 2 3.98 2 5 C5.3 5 8.6 5 12 5 C12 5.33 12 5.66 12 6 C8.04 6 4.08 6 0 6 C0 4.02 0 2.04 0 0 Z " fill="#173A76" transform="translate(690,651)"/>
<path d="M0 0 C5.75 1.875 5.75 1.875 8 3 C9.54023996 3.06950541 11.08334988 3.08452357 12.625 3.0625 C13.44226563 3.05347656 14.25953125 3.04445313 15.1015625 3.03515625 C15.72804688 3.02355469 16.35453125 3.01195312 17 3 C16.67 3.66 16.34 4.32 16 5 C12.37 5 8.74 5 5 5 C5 5.33 5 5.66 5 6 C9.95 6 14.9 6 20 6 C19.67 6.66 19.34 7.32 19 8 C13.86633533 9.71122156 7.82695419 10.11041597 2.72265625 8.10546875 C0.8125 7 0.8125 7 -2 5 C-1.34 3.35 -0.68 1.7 0 0 Z " fill="#0A306F" transform="translate(518,678)"/>
<path d="M0 0 C0.99 0.495 0.99 0.495 2 1 C2.73075648 3.3140622 3.40138258 5.64828869 4 8 C9.94 7.505 9.94 7.505 16 7 C16.99 4.69 17.98 2.38 19 0 C19.33 0 19.66 0 20 0 C19.9071875 1.1446875 19.9071875 1.1446875 19.8125 2.3125 C19.74101915 5.04525312 19.74101915 5.04525312 21.5 6.8125 C21.995 7.204375 22.49 7.59625 23 8 C21.32607931 10.07168402 20.52106974 10.94044082 17.82348633 11.2487793 C17.00130615 11.19117432 16.17912598 11.13356934 15.33203125 11.07421875 C13.99301758 10.99204102 13.99301758 10.99204102 12.62695312 10.90820312 C11.23379883 10.79895508 11.23379883 10.79895508 9.8125 10.6875 C8.87212891 10.62626953 7.93175781 10.56503906 6.96289062 10.50195312 C4.64095408 10.34872889 2.32030621 10.17619892 0 10 C0 6.7 0 3.4 0 0 Z " fill="#04467E" transform="translate(374,675)"/>
<path d="M0 0 C2.40804568 2.40804568 3.00768759 4.42203775 4.125 7.625 C4.47820312 8.62789062 4.83140625 9.63078125 5.1953125 10.6640625 C5.46085937 11.43492187 5.72640625 12.20578125 6 13 C2.37 13 -1.26 13 -5 13 C-2.25 3.375 -2.25 3.375 0 0 Z " fill="#E9EFF1" transform="translate(252,660)"/>
<path d="M0 0 C3.46692734 3.7971109 4.51061867 8.17724141 6 13 C2.37 13 -1.26 13 -5 13 C-2.05357143 3.89285714 -2.05357143 3.89285714 0 0 Z " fill="#E7ECEC" transform="translate(338,660)"/>
<path d="M0 0 C1.56041016 -0.03867187 1.56041016 -0.03867187 3.15234375 -0.078125 C6.37971419 0.28576643 7.69963641 1.08641406 10.0625 3.25 C8.7425 3.58 7.4225 3.91 6.0625 4.25 C6.3925 5.24 6.7225 6.23 7.0625 7.25 C5.47840006 7.13512252 3.89521037 7.00765492 2.3125 6.875 C1.43078125 6.80539062 0.5490625 6.73578125 -0.359375 6.6640625 C-2.92816382 6.25149945 -4.69591015 5.53839043 -6.9375 4.25 C-6.9375 3.59 -6.9375 2.93 -6.9375 2.25 C-7.5975 1.92 -8.2575 1.59 -8.9375 1.25 C-5.7609489 0.19114963 -3.33761989 0.04950734 0 0 Z " fill="#0B4980" transform="translate(774.9375,650.75)"/>
<path d="M0 0 C3.63 0 7.26 0 11 0 C11 1.32 11 2.64 11 4 C9.95199219 4.05607422 9.95199219 4.05607422 8.8828125 4.11328125 C7.97273437 4.17902344 7.06265625 4.24476563 6.125 4.3125 C5.22007812 4.37050781 4.31515625 4.42851563 3.3828125 4.48828125 C0.63778399 4.7882039 0.63778399 4.7882039 -1 8 C-1.02749478 10.06910593 -1.02749478 10.06910593 -0.625 12.1875 C-0.41875 13.445625 -0.2125 14.70375 0 16 C-1.9375 15.625 -1.9375 15.625 -4 15 C-5.45147903 12.09704195 -5.37239025 10.22738221 -5 7 C-3.52028618 4.75973397 -1.84012586 2.9781353 0 1 C0 0.67 0 0.34 0 0 Z " fill="#064880" transform="translate(523,651)"/>
<path d="M0 0 C1 2 1 2 0.47094727 3.78759766 C0.02319946 4.84019775 0.02319946 4.84019775 -0.43359375 5.9140625 C-0.75263672 6.67460938 -1.07167969 7.43515625 -1.40039062 8.21875 C-1.74263672 9.0128125 -2.08488281 9.806875 -2.4375 10.625 C-2.77587891 11.42679688 -3.11425781 12.22859375 -3.46289062 13.0546875 C-4.30166778 15.03939964 -5.14995245 17.02008875 -6 19 C-4.4166747 17.7511573 -4.4166747 17.7511573 -3 16 C-3 14.68 -3 13.36 -3 12 C-2.01 11.67 -1.02 11.34 0 11 C-0.48578543 14.12290635 -0.9986012 16.99580359 -2 20 C1.63 20 5.26 20 9 20 C9 20.33 9 20.66 9 21 C6.5211787 21.19389096 4.04219069 21.38040123 1.5625 21.5625 C0.85544922 21.61857422 0.14839844 21.67464844 -0.58007812 21.73242188 C-2.38427837 21.86190993 -4.19231952 21.93521608 -6 22 C-6.33 21.67 -6.66 21.34 -7 21 C-7.66 21.66 -8.32 22.32 -9 23 C-8.40277975 17.73284919 -6.66259825 13.45998089 -4.5 8.6875 C-4.01853516 7.59598633 -4.01853516 7.59598633 -3.52734375 6.48242188 C-1.15334821 1.15334821 -1.15334821 1.15334821 0 0 Z " fill="#062B6C" transform="translate(335,654)"/>
<path d="M0 0 C0.66 0 1.32 0 2 0 C5.90075743 10.12339429 5.28171002 20.34718774 5 31 C-0.2734375 34.22265625 -0.2734375 34.22265625 -2 35 C-2.66 34.67 -3.32 34.34 -4 34 C0.75 30 0.75 30 3 30 C2.53894171 19.86885065 1.7907672 9.99700135 0 0 Z " fill="#154282" transform="translate(352,387)"/>
<path d="M0 0 C0.66 0.66 1.32 1.32 2 2 C1.484375 2.94875 0.96875 3.8975 0.4375 4.875 C-0.2740625 6.421875 -0.2740625 6.421875 -1 8 C-0.67 8.66 -0.34 9.32 0 10 C0.66 9.34 1.32 8.68 2 8 C1.46515599 13.34844008 -0.46690767 17.35796103 -3 22 C-4.04449911 18.86650268 -3.93423645 18.01031744 -3 15 C-3.33 15.99 -3.66 16.98 -4 18 C-4.66 18 -5.32 18 -6 18 C-6.28875 18.94875 -6.5775 19.8975 -6.875 20.875 C-8 24 -8 24 -10 26 C-9.385789 22.38549563 -8.39633734 19.27609839 -6.93359375 15.91796875 C-6.53076172 14.98662109 -6.12792969 14.05527344 -5.71289062 13.09570312 C-5.29201172 12.13599609 -4.87113281 11.17628906 -4.4375 10.1875 C-4.01275391 9.20845703 -3.58800781 8.22941406 -3.15039062 7.22070312 C-2.10460494 4.81187093 -1.05435216 2.40509197 0 0 Z " fill="#082E6E" transform="translate(249,652)"/>
<path d="M0 0 C0.99 0 1.98 0 3 0 C3 3.3 3 6.6 3 10 C8.94 10 14.88 10 21 10 C21 10.66 21 11.32 21 12 C14.07 12 7.14 12 0 12 C0 8.04 0 4.08 0 0 Z " fill="#02487F" transform="translate(455,673)"/>
<path d="M0 0 C5.61 0 11.22 0 17 0 C17 1.98 17 3.96 17 6 C9.08 6 1.16 6 -7 6 C-7 5.34 -7 4.68 -7 4 C0.26 4 7.52 4 15 4 C15 3.01 15 2.02 15 1 C10.05 1 5.1 1 0 1 C0 0.67 0 0.34 0 0 Z " fill="#213F79" transform="translate(616,681)"/>
<path d="M0 0 C0.99 0 1.98 0 3 0 C3 6.93 3 13.86 3 21 C2.01 21.33 1.02 21.66 0 22 C0 14.74 0 7.48 0 0 Z " fill="#014881" transform="translate(648,653)"/>
<path d="M0 0 C0.88751953 0.30744141 0.88751953 0.30744141 1.79296875 0.62109375 C5.83660816 1.9997571 9.76855249 3.31750847 14 4 C11.99775056 6.87823356 10.64230662 7.08076947 7.125 7.875 C3.24768491 8.25414705 1.11753207 7.43557193 -2 5 C-1.34 3.35 -0.68 1.7 0 0 Z " fill="#052769" transform="translate(857,678)"/>
<path d="M0 0 C0.66 0 1.32 0 2 0 C1.855625 0.804375 1.71125 1.60875 1.5625 2.4375 C1.00981336 5.93784873 0.62226327 9.42338517 0.28125 12.94921875 C0 15 0 15 -1 18 C-3.0625 18.6875 -3.0625 18.6875 -5 19 C-4.72962375 11.64576595 -3.73081346 6.37848752 0 0 Z " fill="#03457E" transform="translate(562,657)"/>
<path d="M0 0 C2.19921875 1.08984375 2.19921875 1.08984375 5.51171875 3.08984375 C4.52171875 4.40984375 3.53171875 5.72984375 2.51171875 7.08984375 C1.52171875 6.75984375 0.53171875 6.42984375 -0.48828125 6.08984375 C0.50171875 5.75984375 1.49171875 5.42984375 2.51171875 5.08984375 C1.40977657 3.4828319 1.40977657 3.4828319 -0.48828125 2.08984375 C-3.5474788 1.57467193 -3.5474788 1.57467193 -6.92578125 1.65234375 C-8.62541016 1.62333984 -8.62541016 1.62333984 -10.359375 1.59375 C-14.10406558 2.18747747 -15.25326677 3.07604141 -17.48828125 6.08984375 C-18.29594003 9.73706071 -18.29594003 9.73706071 -18.48828125 13.08984375 C-18.81828125 13.08984375 -19.14828125 13.08984375 -19.48828125 13.08984375 C-20.07162579 8.13141515 -20.26960014 5.12456336 -17.17578125 1.02734375 C-12.12926434 -2.40858265 -5.54803259 -2.02934316 0 0 Z " fill="#0A2D6E" transform="translate(875.48828125,651.91015625)"/>
<path d="M0 0 C1.32 1.32 2.64 2.64 4 4 C4.66 3.01 5.32 2.02 6 1 C6.57293869 10.73995772 6.57293869 10.73995772 3 15 C2.34 15 1.68 15 1 15 C-0.32286246 10.03926578 -0.08893197 5.08888488 0 0 Z " fill="#022F6D" transform="translate(787,665)"/>
<path d="M0 0 C0.66 1.32 1.32 2.64 2 4 C2.66 3.67 3.32 3.34 4 3 C3.95875 4.0725 3.9175 5.145 3.875 6.25 C3.9885825 9.65747485 4.21273364 11.20739631 6 14 C4.35 14.66 2.7 15.32 1 16 C-0.72327319 13.0098145 -1.25156728 10.87966022 -1.1875 7.4375 C-1.18105469 6.67308594 -1.17460937 5.90867187 -1.16796875 5.12109375 C-1 3 -1 3 0 0 Z " fill="#08427D" transform="translate(192,661)"/>
<path d="M0 0 C1.5625 1.6875 1.5625 1.6875 3 4 C2.58984375 6.64453125 2.58984375 6.64453125 2 9 C0.23225581 9.53122363 -1.53934083 10.04964073 -3.3125 10.5625 C-4.29863281 10.85253906 -5.28476562 11.14257812 -6.30078125 11.44140625 C-9 12 -9 12 -12 11 C-11.34 10.67 -10.68 10.34 -10 10 C-10.33 9.34 -10.66 8.68 -11 8 C-8.69 8 -6.38 8 -4 8 C-4 7.34 -4 6.68 -4 6 C-3.01 5.34 -2.02 4.68 -1 4 C-0.27617533 1.94074861 -0.27617533 1.94074861 0 0 Z " fill="#09457F" transform="translate(875,675)"/>
<path d="M0 0 C3.96 0 7.92 0 12 0 C12 1.65 12 3.3 12 5 C9.37684968 6.31157516 7.76966564 5.89649988 4.875 5.5625 C3.96492188 5.46066406 3.05484375 5.35882812 2.1171875 5.25390625 C1.41851562 5.17011719 0.71984375 5.08632813 0 5 C0 3.35 0 1.7 0 0 Z " fill="#E5E9E8" transform="translate(380,659)"/>
<path d="M0 0 C1.89213369 2.38573379 3.02391783 4.07175348 4 7 C4.33 6.01 4.66 5.02 5 4 C5.33 3.01 5.66 2.02 6 1 C7.33957921 3.78871177 8.67058435 6.58143062 10 9.375 C10.3815625 10.1690625 10.763125 10.963125 11.15625 11.78125 C11.5171875 12.54179688 11.878125 13.30234375 12.25 14.0859375 C12.58515625 14.7876709 12.9203125 15.4894043 13.265625 16.21240234 C14 18 14 18 14 20 C13.34 20 12.68 20 12 20 C10.68 17.03 9.36 14.06 8 11 C7.01 11 6.02 11 5 11 C1.54736544 7.54736544 0.44925138 4.82945236 0 0 Z " fill="#072E6F" transform="translate(341,663)"/>
<path d="M0 0 C2.06723714 3.10085571 2.24497423 3.72931681 2.1953125 7.23046875 C2.18886719 8.03291016 2.18242188 8.83535156 2.17578125 9.66210938 C2.15902344 10.49548828 2.14226563 11.32886719 2.125 12.1875 C2.11597656 13.03248047 2.10695313 13.87746094 2.09765625 14.74804688 C2.07410703 16.83215243 2.03823647 18.91611217 2 21 C1.01 21 0.02 21 -1 21 C-2.8558792 14.04045299 -2.80324191 6.65769953 0 0 Z " fill="#E1E8EB" transform="translate(794,422)"/>
<path d="M0 0 C1.15371094 -0.01417969 2.30742188 -0.02835938 3.49609375 -0.04296875 C6.5625 0.1875 6.5625 0.1875 9.5625 2.1875 C9.5625 2.8475 9.5625 3.5075 9.5625 4.1875 C7.75 4.8125 7.75 4.8125 5.5625 5.1875 C4.5725 4.5275 3.5825 3.8675 2.5625 3.1875 C-2.39495506 2.86766419 -5.91788922 2.92769461 -10.4375 5.1875 C-7.99790597 -0.2144582 -5.7489146 0.03204523 0 0 Z " fill="#04457D" transform="translate(868.4375,652.8125)"/>
<path d="M0 0 C1.98 0.495 1.98 0.495 4 1 C4.66 4.63 5.32 8.26 6 12 C3 12 3 12 1.375 10.875 C-0.50987212 8.30471983 -0.73779901 6.14641194 -1 3 C-0.67 2.01 -0.34 1.02 0 0 Z " fill="#043B79" transform="translate(254,656)"/>
<path d="M0 0 C-3.23366779 3.23366779 -6.81887295 3.05205743 -11.20703125 3.09765625 C-12.74221809 3.09106747 -14.27739016 3.07922794 -15.8125 3.0625 C-16.99489258 3.05573242 -16.99489258 3.05573242 -18.20117188 3.04882812 C-20.13414761 3.03711312 -22.06708393 3.01917998 -24 3 C-17.88655371 -2.53333824 -7.66902025 -1.60514377 0 0 Z " fill="#E1E8EC" transform="translate(560,613)"/>
<path d="M0 0 C0.85271484 0.30744141 0.85271484 0.30744141 1.72265625 0.62109375 C6.5084454 2.29092669 10.95943201 3.46376936 16 4 C15 6 15 6 12.6875 7.125 C10 8 10 8 6 8 C6 7.01 6 6.02 6 5 C5.195625 4.731875 4.39125 4.46375 3.5625 4.1875 C2.716875 3.795625 1.87125 3.40375 1 3 C0.67 2.01 0.34 1.02 0 0 Z " fill="#07457D" transform="translate(562,679)"/>
<path d="M0 0 C0.66 0 1.32 0 2 0 C2 1.98 2 3.96 2 6 C3.79260132 5.94004678 5.58425795 5.8512759 7.375 5.75 C8.37273437 5.70359375 9.37046875 5.6571875 10.3984375 5.609375 C13.1526477 5.27839115 13.1526477 5.27839115 14.3515625 2.953125 C14.56554687 2.30859375 14.77953125 1.6640625 15 1 C15.125 3.375 15.125 3.375 15 6 C13 8 13 8 9.9609375 8.1953125 C8.77757812 8.17210937 7.59421875 8.14890625 6.375 8.125 C5.18648438 8.10695313 3.99796875 8.08890625 2.7734375 8.0703125 C1.85820312 8.04710937 0.94296875 8.02390625 0 8 C0 5.36 0 2.72 0 0 Z " fill="#F5FAF9" transform="translate(378,673)"/>
<path d="M0 0 C0.58559828 1.75679484 1.14184231 3.52481655 1.625 5.3125 C5.17254226 12.2463326 12.02102148 15.30969082 19 18 C16.36098134 19.02155561 15.29636113 19.1212831 12.6328125 18.03125 C5.64716333 13.7658692 0.52627407 9.47700707 -3 2 C-2.01 1.34 -1.02 0.68 0 0 Z " fill="#0D2D6D" transform="translate(577,457)"/>
<path d="M0 0 C0 0.66 0 1.32 0 2 C1.98 2 3.96 2 6 2 C2.22687008 5.94463583 2.22687008 5.94463583 -1.1640625 6.09765625 C-2.38222656 6.08025391 -2.38222656 6.08025391 -3.625 6.0625 C-4.85089844 6.04896484 -4.85089844 6.04896484 -6.1015625 6.03515625 C-7.04128906 6.01775391 -7.04128906 6.01775391 -8 6 C-6 4 -6 4 -3 3 C-5.97 2.505 -5.97 2.505 -9 2 C-9 1.67 -9 1.34 -9 1 C-2.25 0 -2.25 0 0 0 Z " fill="#052B6B" transform="translate(580,681)"/>
<path d="M0 0 C0.66 0.66 1.32 1.32 2 2 C1 3 1 3 -1.328125 3.02734375 C-3.26571704 2.96776539 -5.2032225 2.90529654 -7.140625 2.83984375 C-10.16315657 3.00913855 -12.27148704 3.73034524 -15 5 C-15 4.01 -15 3.02 -15 2 C-9.7709663 0.25698877 -5.52246315 -0.37440428 0 0 Z " fill="#E2ECEE" transform="translate(616,406)"/>
<path d="M0 0 C0.66 0.33 1.32 0.66 2 1 C1.125 6.875 1.125 6.875 0 8 C-1.99958364 8.04080783 -4.00045254 8.04254356 -6 8 C-5.8125 5.6875 -5.8125 5.6875 -5 3 C-2.5625 1.125 -2.5625 1.125 0 0 Z " fill="#0D3B75" transform="translate(241,679)"/>
<path d="M0 0 C3.17033042 0.33967826 3.99882607 0.99869191 6.1875 3.4375 C8.5180617 6.73243206 9.15447266 8.39850813 9.1875 12.375 C9.20167969 13.14585937 9.21585937 13.91671875 9.23046875 14.7109375 C8.97801607 17.21834888 8.25193467 18.83261902 7 21 C5.63651804 18.27303607 6.08538266 16.22169688 6.25 13.1875 C6.35369266 8.10956853 6.35369266 8.10956853 3.5625 3.875 C2.716875 3.25625 1.87125 2.6375 1 2 C0.67 1.34 0.34 0.68 0 0 Z " fill="#072E73" transform="translate(369,544)"/>
<path d="M0 0 C0.99 0.33 1.98 0.66 3 1 C3 2.65 3 4.3 3 6 C6.63 6 10.26 6 14 6 C14 6.33 14 6.66 14 7 C9.38 7.66 4.76 8.32 0 9 C0 6.03 0 3.06 0 0 Z " fill="#E5ECED" transform="translate(459,672)"/>
<path d="M0 0 C2.75 -0.25 2.75 -0.25 6 0 C8.375 2 8.375 2 10 4 C9.01 5.485 9.01 5.485 8 7 C7.44828125 6.85691406 6.8965625 6.71382812 6.328125 6.56640625 C3.81285231 5.9544691 1.28957492 5.43873189 -1.25 4.9375 C-2.14203125 4.76089844 -3.0340625 4.58429687 -3.953125 4.40234375 C-4.62859375 4.26957031 -5.3040625 4.13679687 -6 4 C-6 3.67 -6 3.34 -6 3 C-4.41705218 2.94562393 -2.83355744 2.90703729 -1.25 2.875 C-0.36828125 2.85179687 0.5134375 2.82859375 1.421875 2.8046875 C4.1135858 3.00860498 5.69904974 3.63448279 8 5 C8 4.34 8 3.68 8 3 C7.4225 2.87625 6.845 2.7525 6.25 2.625 C3.97664233 1.99351176 2.0746471 1.11141809 0 0 Z " fill="#072568" transform="translate(166,652)"/>
<path d="M0 0 C0.33 0.66 0.66 1.32 1 2 C-2.3 2 -5.6 2 -9 2 C-9.66 3.32 -10.32 4.64 -11 6 C-11.99 6.33 -12.98 6.66 -14 7 C-14.66 7.66 -15.32 8.32 -16 9 C-15.79803569 5.36464239 -15.21677989 4.2005214 -12.5 1.6875 C-8.12566725 -0.42155329 -4.76027183 -0.38082175 0 0 Z " fill="#092B6C" transform="translate(553,359)"/>
<path d="M0 0 C2.5625 1.5625 2.5625 1.5625 5 4 C4.8125 7.75 4.8125 7.75 4 11 C3.01 11.33 2.02 11.66 1 12 C0.87625 11.030625 0.7525 10.06125 0.625 9.0625 C0.41875 8.051875 0.2125 7.04125 0 6 C-0.66 5.67 -1.32 5.34 -2 5 C-1.34 3.35 -0.68 1.7 0 0 Z " fill="#04427D" transform="translate(788,659)"/>
<path d="M0 0 C0.99 0.33 1.98 0.66 3 1 C2.34 2.98 1.68 4.96 1 7 C-1.97 7 -4.94 7 -8 7 C-7.67 5.68 -7.34 4.36 -7 3 C-4.69 2.34 -2.38 1.68 0 1 C0 0.67 0 0.34 0 0 Z " fill="#09457E" transform="translate(213,680)"/>
<path d="M0 0 C2.1519437 3.22791555 2.20086443 4.28400809 2 8 C2.66 8.33 3.32 8.66 4 9 C0.375 12 0.375 12 -3 12 C-2.25749403 7.91621717 -1.17076699 3.98060777 0 0 Z " fill="#0E4780" transform="translate(786,672)"/>
<path d="M0 0 C0.969375 0.495 1.93875 0.99 2.9375 1.5 C7.28728381 3.39857367 11.33030204 3.28589988 16 3 C14 5 14 5 11.3984375 5.1953125 C10.40070312 5.17210937 9.40296875 5.14890625 8.375 5.125 C6.87066406 5.09792969 6.87066406 5.09792969 5.3359375 5.0703125 C4.56507813 5.04710937 3.79421875 5.02390625 3 5 C3.99 5.99 4.98 6.98 6 8 C4.35 8 2.7 8 1 8 C0.67 5.36 0.34 2.72 0 0 Z " fill="#062768" transform="translate(765,678)"/>
<path d="M0 0 C0 1.65 0 3.3 0 5 C-4.95 5 -9.9 5 -15 5 C-15 4.67 -15 4.34 -15 4 C-10.71 4 -6.42 4 -2 4 C-2 3.34 -2 2.68 -2 2 C-5.96 2 -9.92 2 -14 2 C-14 1.67 -14 1.34 -14 1 C-12.04175306 0.83232136 -10.08339945 0.66588795 -8.125 0.5 C-6.48917969 0.36078125 -6.48917969 0.36078125 -4.8203125 0.21875 C-3.21670436 0.09437042 -1.60842449 0 0 0 Z " fill="#012065" transform="translate(474,666)"/>
<path d="M0 0 C0.33 0 0.66 0 1 0 C1.054348 2.0622048 1.09294961 4.12482816 1.125 6.1875 C1.14820313 7.33605469 1.17140625 8.48460937 1.1953125 9.66796875 C1.00484152 12.91740372 0.39360127 15.08660521 -1 18 C-1.66 18 -2.32 18 -3 18 C-2.88566637 15.74943278 -2.75813564 13.49953326 -2.625 11.25 C-2.55539062 9.99703125 -2.48578125 8.7440625 -2.4140625 7.453125 C-2.04676696 4.39001879 -1.60288714 2.58025734 0 0 Z " fill="#E0EAED" transform="translate(761,427)"/>
<path d="M0 0 C0.99 0.33 1.98 0.66 3 1 C2.690625 1.598125 2.38125 2.19625 2.0625 2.8125 C0.89790296 5.08956772 0.89790296 5.08956772 0 8 C-1.9375 7.625 -1.9375 7.625 -4 7 C-4.33 6.34 -4.66 5.68 -5 5 C-8.02934491 4.34227572 -8.02934491 4.34227572 -11 4 C-11 3.67 -11 3.34 -11 3 C-10.06027344 3.05220703 -10.06027344 3.05220703 -9.1015625 3.10546875 C-8.28429687 3.13253906 -7.46703125 3.15960937 -6.625 3.1875 C-5.40683594 3.23970703 -5.40683594 3.23970703 -4.1640625 3.29296875 C-3.44992188 3.19628906 -2.73578125 3.09960938 -2 3 C-1.34 2.01 -0.68 1.02 0 0 Z " fill="#135389" transform="translate(172,678)"/>
<path d="M0 0 C1.21236328 0.02707031 1.21236328 0.02707031 2.44921875 0.0546875 C3.37154297 0.08949219 3.37154297 0.08949219 4.3125 0.125 C3.9825 1.115 3.6525 2.105 3.3125 3.125 C1.6728125 3.3415625 1.6728125 3.3415625 0 3.5625 C-3.61872987 4.00788104 -3.61872987 4.00788104 -6.6875 5.125 C-7.0175 4.135 -7.3475 3.145 -7.6875 2.125 C-4.48369983 -0.01086678 -3.66810033 -0.10632175 0 0 Z " fill="#E3EBED" transform="translate(208.6875,656.875)"/>
<path d="M0 0 C1.63001953 0.01353516 1.63001953 0.01353516 3.29296875 0.02734375 C4.12441406 0.03894531 4.95585938 0.05054688 5.8125 0.0625 C5.8125 0.7225 5.8125 1.3825 5.8125 2.0625 C2.5125 2.3925 -0.7875 2.7225 -4.1875 3.0625 C-4.1875 3.7225 -4.1875 4.3825 -4.1875 5.0625 C-5.1775 4.7325 -6.1675 4.4025 -7.1875 4.0625 C-7.1875 3.4025 -7.1875 2.7425 -7.1875 2.0625 C-7.8475 1.7325 -8.5075 1.4025 -9.1875 1.0625 C-5.90230525 -0.03256492 -3.45086585 -0.03710608 0 0 Z " fill="#0F3E7C" transform="translate(775.1875,650.9375)"/>
<path d="M0 0 C-2.89054652 2.89054652 -4.72169133 2.99283448 -8.79296875 3.09765625 C-10.25784438 3.09102785 -11.72270378 3.07913087 -13.1875 3.0625 C-13.93708984 3.05798828 -14.68667969 3.05347656 -15.45898438 3.04882812 C-17.30602383 3.03706354 -19.15302213 3.01912865 -21 3 C-21 2.67 -21 2.34 -21 2 C-20.25234375 1.95101563 -19.5046875 1.90203125 -18.734375 1.8515625 C-17.74953125 1.77679688 -16.7646875 1.70203125 -15.75 1.625 C-14.28820312 1.52058594 -14.28820312 1.52058594 -12.796875 1.4140625 C-1.28010825 -0.29093369 -1.28010825 -0.29093369 0 0 Z " fill="#DEE5E8" transform="translate(342,483)"/>
<path d="M0 0 C0.99 0 1.98 0 3 0 C2.91253716 1.43861294 2.80434652 2.87597508 2.6875 4.3125 C2.62949219 5.11300781 2.57148437 5.91351562 2.51171875 6.73828125 C1.91793306 9.36272334 1.04219706 10.30820672 -1 12 C-1.66 10.02 -2.32 8.04 -3 6 C-2.34 5.67 -1.68 5.34 -1 5 C-0.34444881 2.47266765 -0.34444881 2.47266765 0 0 Z " fill="#03457E" transform="translate(589,667)"/>
<path d="M0 0 C0.33 0.66 0.66 1.32 1 2 C1.99 2.33 2.98 2.66 4 3 C3.01 4.485 3.01 4.485 2 6 C1.01 5.67 0.02 5.34 -1 5 C-0.79375 5.598125 -0.5875 6.19625 -0.375 6.8125 C0 9 0 9 -2 12 C-2.66 12 -3.32 12 -4 12 C-3.45660208 7.43545749 -2.20536179 4.0271824 0 0 Z " fill="#074781" transform="translate(333,661)"/>
<path d="M0 0 C0.66 0.33 1.32 0.66 2 1 C2.29296875 7.0546875 2.29296875 7.0546875 2 9 C1.01 9.66 0.02 10.32 -1 11 C-1 10.34 -1 9.68 -1 9 C-1.99 8.67 -2.98 8.34 -4 8 C-4 5.69 -4 3.38 -4 1 C-3.01 1.495 -3.01 1.495 -2 2 C-2 3.65 -2 5.3 -2 7 C-1.01 7 -0.02 7 1 7 C0.67 4.69 0.34 2.38 0 0 Z " fill="#06296B" transform="translate(397,672)"/>
<path d="M0 0 C1.21236328 0.01353516 1.21236328 0.01353516 2.44921875 0.02734375 C3.37154297 0.04474609 3.37154297 0.04474609 4.3125 0.0625 C4.3125 0.3925 4.3125 0.7225 4.3125 1.0625 C1.3425 1.7225 -1.6275 2.3825 -4.6875 3.0625 C-5.03650558 6.77986641 -5.03650558 6.77986641 -3.1875 9.875 C-2.6925 10.266875 -2.1975 10.65875 -1.6875 11.0625 C-4.1625 10.0725 -4.1625 10.0725 -6.6875 9.0625 C-6.6875 7.4125 -6.6875 5.7625 -6.6875 4.0625 C-7.3475 4.0625 -8.0075 4.0625 -8.6875 4.0625 C-8.3575 3.0725 -8.0275 2.0825 -7.6875 1.0625 C-4.80538698 0.10179566 -2.98899956 -0.04331883 0 0 Z " fill="#042668" transform="translate(867.6875,654.9375)"/>
<path d="M0 0 C0 0.66 0 1.32 0 2 C-2.31 2.33 -4.62 2.66 -7 3 C-7.0825 3.61875 -7.165 4.2375 -7.25 4.875 C-8 7 -8 7 -10.0625 8.25 C-10.701875 8.4975 -11.34125 8.745 -12 9 C-11.7153924 5.58470886 -11.20339329 4.21501576 -8.8125 1.6875 C-5.57283878 -0.25629673 -3.71198163 -0.34530062 0 0 Z " fill="#F1F6F6" transform="translate(576,657)"/>
<path d="M0 0 C1.98 0 3.96 0 6 0 C6 0.99 6 1.98 6 3 C5.34 3 4.68 3 4 3 C3.67 5.31 3.34 7.62 3 10 C2.67 10 2.34 10 2 10 C1.34 6.7 0.68 3.4 0 0 Z " fill="#0D437C" transform="translate(285,651)"/>
<path d="M0 0 C5.25093312 1.43207267 8.66818007 4.85239942 12 9 C13.4375 12.4375 13.4375 12.4375 14 15 C10.40607398 11.50875758 7.20378394 7.86097039 4 4 C2.68456137 2.64900897 1.35824882 1.30794331 0 0 Z " fill="#F1F7F8" transform="translate(740,395)"/>
<path d="M0 0 C2 0 2 0 3.625 1.1875 C5.42149467 3.55560662 5.23521845 5.09897251 5 8 C3.68 8 2.36 8 1 8 C0.26919734 6.02253397 -0.39421747 4.01927511 -1 2 C-0.67 1.34 -0.34 0.68 0 0 Z " fill="#05447F" transform="translate(263,677)"/>
<path d="M0 0 C0.33 0.99 0.66 1.98 1 3 C-0.65 3.33 -2.3 3.66 -4 4 C-4.33 3.01 -4.66 2.02 -5 1 C-8.63 1 -12.26 1 -16 1 C-16 0.67 -16 0.34 -16 0 C-14.27185839 -0.19672365 -12.54240803 -0.38196799 -10.8125 -0.5625 C-9.84957031 -0.66691406 -8.88664062 -0.77132812 -7.89453125 -0.87890625 C-5.05766623 -0.99758751 -2.74576329 -0.67765639 0 0 Z " fill="#165488" transform="translate(349,673)"/>
<path d="M0 0 C0 0.66 0 1.32 0 2 C-0.66 2 -1.32 2 -2 2 C-2 2.66 -2 3.32 -2 4 C-5.3 3.67 -8.6 3.34 -12 3 C-12 2.67 -12 2.34 -12 2 C-10.37548581 1.66430703 -8.75037083 1.3315204 -7.125 1 C-6.22007812 0.814375 -5.31515625 0.62875 -4.3828125 0.4375 C-2 0 -2 0 0 0 Z M-13 4 C-10.69 4 -8.38 4 -6 4 C-6 4.33 -6 4.66 -6 5 C-8.31 5 -10.62 5 -13 5 C-13 4.67 -13 4.34 -13 4 Z " fill="#DDE6EA" transform="translate(878,685)"/>
<path d="M0 0 C0.33 0.66 0.66 1.32 1 2 C2.64363134 2.72159424 4.31050386 3.39351421 6 4 C5.01 4.99 4.02 5.98 3 7 C0.525 6.01 0.525 6.01 -2 5 C-1.34 3.35 -0.68 1.7 0 0 Z " fill="#093E7A" transform="translate(857,678)"/>
<path d="M0 0 C0.99 2.31 1.98 4.62 3 7 C0 6 0 6 -2 4 C-2.33 4.99 -2.66 5.98 -3 7 C-3.66 7 -4.32 7 -5 7 C-5.33 5.68 -5.66 4.36 -6 3 C-2.25 0 -2.25 0 0 0 Z " fill="#052E70" transform="translate(653,673)"/>
<path d="M0 0 C2.31 0.33 4.62 0.66 7 1 C6.67 3.64 6.34 6.28 6 9 C5.67 9 5.34 9 5 9 C4.67 6.69 4.34 4.38 4 2 C3.34 2 2.68 2 2 2 C2 4.64 2 7.28 2 10 C1.67 10 1.34 10 1 10 C0.67 6.7 0.34 3.4 0 0 Z " fill="#104C83" transform="translate(757,662)"/>
<path d="M0 0 C5.66153846 2.46153846 5.66153846 2.46153846 7.375 5.1875 C7.58125 5.785625 7.7875 6.38375 8 7 C6.68 7.99 5.36 8.98 4 10 C3.34 9.01 2.68 8.02 2 7 C2.66 7 3.32 7 4 7 C4 6.01 4 5.02 4 4 C2.68 3.34 1.36 2.68 0 2 C0 1.34 0 0.68 0 0 Z " fill="#032869" transform="translate(215,652)"/>
<path d="M0 0 C3.63 0 7.26 0 11 0 C10.34 1.32 9.68 2.64 9 4 C6.1875 4.25 6.1875 4.25 3 4 C2.01 2.68 1.02 1.36 0 0 Z " fill="#0A4E83" transform="translate(570,653)"/>
<path d="M0 0 C4.455 0.99 4.455 0.99 9 2 C9 2.33 9 2.66 9 3 C3.555 4.485 3.555 4.485 -2 6 C-1 2 -1 2 0 0 Z " fill="#02447F" transform="translate(202,652)"/>
<path d="M0 0 C0.66 0.33 1.32 0.66 2 1 C-3.00932754 4.00559652 -6.32723489 4.29341888 -12 4 C-11.34 3.01 -10.68 2.02 -10 1 C-8.125 0.7421875 -8.125 0.7421875 -6 0.875 C-2.88264379 1.0856373 -2.88264379 1.0856373 0 0 Z " fill="#032B6B" transform="translate(784,683)"/>
<path d="M0 0 C2.97 0 5.94 0 9 0 C9.33 0.99 9.66 1.98 10 3 C7.69 3.66 5.38 4.32 3 5 C2.01 3.35 1.02 1.7 0 0 Z " fill="#05447E" transform="translate(154,665)"/>
<path d="M0 0 C1.98 0 3.96 0 6 0 C6 0.66 6 1.32 6 2 C5.34 2 4.68 2 4 2 C4 3.65 4 5.3 4 7 C3.01 7.495 3.01 7.495 2 8 C1.34 5.36 0.68 2.72 0 0 Z " fill="#0F427B" transform="translate(735,651)"/>
<path d="M0 0 C2.10388569 -0.05402274 4.20816714 -0.09280256 6.3125 -0.125 C8.07013672 -0.15980469 8.07013672 -0.15980469 9.86328125 -0.1953125 C13 0 13 0 16 2 C13.10765685 2.82638376 11.11257569 3 8 3 C8 2.34 8 1.68 8 1 C5.36 1 2.72 1 0 1 C0 0.67 0 0.34 0 0 Z " fill="#DEEAEF" transform="translate(634,544)"/>
<path d="M0 0 C0 0.99 0 1.98 0 3 C-3.96 3 -7.92 3 -12 3 C-7.28954732 0.64477366 -5.22786799 -0.1136493 0 0 Z " fill="#DEEAED" transform="translate(717,456)"/>
<path d="M0 0 C0.75 1.5625 0.75 1.5625 1 4 C-0.65135896 8.02967486 -2.3524487 10.56829914 -6 13 C-5.71125 12.505 -5.4225 12.01 -5.125 11.5 C-4.09933288 9.22073973 -3.54823154 7.23603149 -3 4.8125 C-2.67 3.554375 -2.34 2.29625 -2 1 C-1.34 0.67 -0.68 0.34 0 0 Z " fill="#062B6B" transform="translate(649,456)"/>
<path d="M0 0 C0.33 0 0.66 0 1 0 C1.8509772 4.48697069 2.30694325 7.06211785 0.875 11.4375 C-1 14 -1 14 -3.6875 14.875 C-4.450625 14.91625 -5.21375 14.9575 -6 15 C-5.67 14.34 -5.34 13.68 -5 13 C-4.34 13 -3.68 13 -3 13 C-0.96834048 8.66579301 -0.47939368 4.71403788 0 0 Z " fill="#CBE0E9" transform="translate(377,442)"/>
<path d="M0 0 C1.69141656 0.08963062 3.37959602 0.24577676 5.0625 0.4375 C6.44115234 0.59025391 6.44115234 0.59025391 7.84765625 0.74609375 C8.55792969 0.82988281 9.26820313 0.91367187 10 1 C9.67 1.66 9.34 2.32 9 3 C7.1875 3.5625 7.1875 3.5625 5 4 C3.88625 4.2784375 3.88625 4.2784375 2.75 4.5625 C2.1725 4.706875 1.595 4.85125 1 5 C0.34 3.68 -0.32 2.36 -1 1 C-0.67 0.67 -0.34 0.34 0 0 Z " fill="#074A7F" transform="translate(768,682)"/>
<path d="M0 0 C1.9375 0.6875 1.9375 0.6875 2.9375 2.6875 C1.6175 3.0175 0.2975 3.3475 -1.0625 3.6875 C-0.0725 5.0075 0.9175 6.3275 1.9375 7.6875 C1.6075 8.3475 1.2775 9.0075 0.9375 9.6875 C0.09844435 8.56676138 -0.73357831 7.44075453 -1.5625 6.3125 C-2.0265625 5.68601562 -2.490625 5.05953125 -2.96875 4.4140625 C-4.0625 2.6875 -4.0625 2.6875 -4.0625 0.6875 C-2.0625 -0.3125 -2.0625 -0.3125 0 0 Z " fill="#022A6B" transform="translate(785.0625,654.3125)"/>
<path d="M0 0 C0.66 1.32 1.32 2.64 2 4 C2.99 3.67 3.98 3.34 5 3 C5.33 2.34 5.66 1.68 6 1 C6.66 2.65 7.32 4.3 8 6 C5.69 6 3.38 6 1 6 C0.67 4.02 0.34 2.04 0 0 Z " fill="#143371" transform="translate(262,681)"/>
<path d="M0 0 C1.25 1.5625 1.25 1.5625 2 4 C0.93237266 6.57001015 -0.46544943 8.6530403 -2 11 C-2.66 11 -3.32 11 -4 11 C-2.7874262 7.27566618 -1.49140021 3.62197194 0 0 Z " fill="#014881" transform="translate(245,665)"/>
<path d="M0 0 C1.5625 1.75 1.5625 1.75 3 4 C2.6875 6.25 2.6875 6.25 2 8 C1.34 7.34 0.68 6.68 0 6 C-0.99 7.32 -1.98 8.64 -3 10 C-2.49287967 6.28111761 -1.88391785 3.26545761 0 0 Z " fill="#F1F6F7" transform="translate(338,660)"/>
<path d="M0 0 C0.99 0 1.98 0 3 0 C3.33 0.66 3.66 1.32 4 2 C6.97 2 9.94 2 13 2 C13 2.33 13 2.66 13 3 C11.23186888 3.24915939 9.46025018 3.47366632 7.6875 3.6875 C6.70136719 3.81511719 5.71523438 3.94273437 4.69921875 4.07421875 C2 4 2 4 0.14453125 2.51953125 C-0.42201172 1.76736328 -0.42201172 1.76736328 -1 1 C-0.67 0.67 -0.34 0.34 0 0 Z " fill="#012668" transform="translate(765,653)"/>
<path d="M0 0 C0 3 0 3 -1.625 5.625 C-4.43693229 8.43693229 -6.10240081 8.7342546 -10 9 C-9.278125 8.443125 -8.55625 7.88625 -7.8125 7.3125 C-5.02542701 5.02090666 -2.51358472 2.58540143 0 0 Z " fill="#07276A" transform="translate(836,449)"/>
<path d="M0 0 C0.99 0.33 1.98 0.66 3 1 C2.67 2.32 2.34 3.64 2 5 C-0.97 4.505 -0.97 4.505 -4 4 C-3.67 3.01 -3.34 2.02 -3 1 C-2.34 1 -1.68 1 -1 1 C-0.67 0.67 -0.34 0.34 0 0 Z " fill="#07467D" transform="translate(584,679)"/>
<path d="M0 0 C2.63556905 1.31778453 4.72269553 3.14219898 7 5 C6.67 5.66 6.34 6.32 6 7 C3.69 6.01 1.38 5.02 -1 4 C-0.67 2.68 -0.34 1.36 0 0 Z " fill="#04437E" transform="translate(581,652)"/>
<path d="M0 0 C1.2065625 0.0309375 1.2065625 0.0309375 2.4375 0.0625 C2.7675 1.0525 3.0975 2.0425 3.4375 3.0625 C1.4575 3.7225 -0.5225 4.3825 -2.5625 5.0625 C-3.125 3.125 -3.125 3.125 -3.5625 1.0625 C-2.5625 0.0625 -2.5625 0.0625 0 0 Z " fill="#17457F" transform="translate(338.5625,650.9375)"/>
<path d="M0 0 C0.33 0.66 0.66 1.32 1 2 C2.32 2 3.64 2 5 2 C5 1.34 5 0.68 5 0 C5.66 0 6.32 0 7 0 C7.33 1.32 7.66 2.64 8 4 C5.69 4 3.38 4 1 4 C0.67 2.68 0.34 1.36 0 0 Z " fill="#24477E" transform="translate(349,683)"/>
<path d="M0 0 C2.88437779 1.29299694 4.87219421 2.65941363 7 5 C4.6568787 4.74438677 2.32156597 4.40729228 0 4 C-0.33 3.34 -0.66 2.68 -1 2 C-0.67 1.34 -0.34 0.68 0 0 Z " fill="#E1E9EC" transform="translate(650,546)"/>
<path d="M0 0 C3.3 0.33 6.6 0.66 10 1 C10 1.66 10 2.32 10 3 C6.7 2.67 3.4 2.34 0 2 C0 1.34 0 0.68 0 0 Z " fill="#D9E6ED" transform="translate(611,422)"/>
<path d="M0 0 C-1.11375 0.45375 -2.2275 0.9075 -3.375 1.375 C-6.96199008 2.72465986 -6.96199008 2.72465986 -9 5 C-9.99 4.67 -10.98 4.34 -12 4 C-8.31497587 -0.23095363 -5.4879376 -1.82931253 0 0 Z " fill="#E0EBEE" transform="translate(809,413)"/>
<path d="M0 0 C0.33 0 0.66 0 1 0 C0.9071875 1.1446875 0.9071875 1.1446875 0.8125 2.3125 C0.74101915 5.04525312 0.74101915 5.04525312 2.5 6.8125 C2.995 7.204375 3.49 7.59625 4 8 C3.34 8.66 2.68 9.32 2 10 C0.68 8.68 -0.64 7.36 -2 6 C-1.34 4.02 -0.68 2.04 0 0 Z " fill="#144981" transform="translate(393,675)"/>
<path d="M0 0 C0.99 0 1.98 0 3 0 C2.01 2.97 1.02 5.94 0 9 C-0.33 9 -0.66 9 -1 9 C-1.09765625 2.84765625 -1.09765625 2.84765625 -1 1 C-0.67 0.67 -0.34 0.34 0 0 Z " fill="#E2ECEE" transform="translate(244,657)"/>
<path d="M0 0 C0.33 0.99 0.66 1.98 1 3 C0.01 3.66 -0.98 4.32 -2 5 C-3.2188121 8.55672179 -3.2188121 8.55672179 -4 12 C-5.39864092 8.82127065 -4.89282517 7.69888978 -3.6875 4.3125 C-2 1 -2 1 0 0 Z " fill="#E7EAEB" transform="translate(344,494)"/>
<path d="M0 0 C0.99 0 1.98 0 3 0 C3 0.66 3 1.32 3 2 C4.65 2.33 6.3 2.66 8 3 C8 3.66 8 4.32 8 5 C3.545 4.01 3.545 4.01 -1 3 C-0.67 2.01 -0.34 1.02 0 0 Z " fill="#DCE8EC" transform="translate(624,387)"/>
<path d="M0 0 C1.98 0 3.96 0 6 0 C6.33 0.99 6.66 1.98 7 3 C5.1875 3.625 5.1875 3.625 3 4 C2.01 3.34 1.02 2.68 0 2 C0 1.34 0 0.68 0 0 Z " fill="#03447C" transform="translate(198,680)"/>
<path d="M0 0 C0.33 0 0.66 0 1 0 C1.33 2.31 1.66 4.62 2 7 C2.66 7 3.32 7 4 7 C3.67 8.65 3.34 10.3 3 12 C1 11 1 11 0 8 C-0.12781786 5.32605036 -0.04391871 2.67904143 0 0 Z " fill="#DFE5E7" transform="translate(188,666)"/>
<path d="M0 0 C0.66 0 1.32 0 2 0 C2.28875 0.78375 2.5775 1.5675 2.875 2.375 C3.84912254 5.09671632 3.84912254 5.09671632 6 7 C4.125 7.625 4.125 7.625 2 8 C1.34 7.34 0.68 6.68 0 6 C0 4 0 2 0 0 Z " fill="#0A3672" transform="translate(521,659)"/>
<path d="M0 0 C3.465 1.485 3.465 1.485 7 3 C5.35 4.32 3.7 5.64 2 7 C1.87625 6.195625 1.7525 5.39125 1.625 4.5625 C1.315625 3.2940625 1.315625 3.2940625 1 2 C0.34 1.67 -0.32 1.34 -1 1 C-0.67 0.67 -0.34 0.34 0 0 Z " fill="#12427D" transform="translate(763,654)"/>
<path d="M0 0 C0.99 0.33 1.98 0.66 3 1 C0.45378681 3.00059608 -1.98037615 4.79215046 -5 6 C-5.66 5.67 -6.32 5.34 -7 5 C-2.25 1.125 -2.25 1.125 0 0 Z " fill="#042468" transform="translate(520,528)"/>
<path d="M0 0 C0.99 0.33 1.98 0.66 3 1 C1.19587357 4.26460973 0.16605307 5.88929795 -3 8 C-3.99 7.67 -4.98 7.34 -6 7 C-5.195625 6.5875 -4.39125 6.175 -3.5625 5.75 C-0.85890282 4.26547669 -0.85890282 4.26547669 -0.1875 1.8125 C-0.125625 1.214375 -0.06375 0.61625 0 0 Z " fill="#0A2D6C" transform="translate(558,375)"/>
<path d="M0 0 C0.33 0 0.66 0 1 0 C2.23076923 6.4 2.23076923 6.4 1.0625 9.4375 C0.711875 9.953125 0.36125 10.46875 0 11 C-1.28571429 3.57142857 -1.28571429 3.57142857 0 0 Z " fill="#DDE8EA" transform="translate(103,565)"/>
<path d="M0 0 C0.33 1.32 0.66 2.64 1 4 C-1.31 4 -3.62 4 -6 4 C-5.67 3.01 -5.34 2.02 -5 1 C-3.35 1.33 -1.7 1.66 0 2 C0 1.34 0 0.68 0 0 Z " fill="#1F3E78" transform="translate(327,683)"/>
<path d="M0 0 C1.98 0 3.96 0 6 0 C6 0.99 6 1.98 6 3 C4.02 3 2.04 3 0 3 C0 2.01 0 1.02 0 0 Z " fill="#E2ECEF" transform="translate(304,613)"/>
<path d="M0 0 C0.33 0.66 0.66 1.32 1 2 C-3.08443115 3.53166168 -6.79455657 2.63081652 -11 2 C-11 1.67 -11 1.34 -11 1 C-7.27569643 0.30710631 -3.78916254 -0.11144596 0 0 Z " fill="#E5EAEB" transform="translate(827,455)"/>
<path d="M0 0 C-2.62198774 2.15377564 -4.64404172 3.40072174 -8 4 C-7.625 2.0625 -7.625 2.0625 -7 0 C-4.3333581 -1.33332095 -2.83319697 -0.67102033 0 0 Z " fill="#0D4982" transform="translate(597,393)"/>
</svg>
